<?xml version="1.0" encoding="UTF-8"?><svg id="Layer_1" xmlns="http://www.w3.org/2000/svg" viewBox="0 0 2000 2000"><defs><style>.cls-1{fill:#006838;}.cls-2{fill:#e3d363;}.cls-3{fill:#fff;}.cls-4{fill:#7f5234;}.cls-5{fill:#996440;}.cls-6{fill:#bde5f8;}.cls-7{fill:#1643b6;}</style></defs><line class="cls-5" x1="1259.22" y1="729.69" x2="1254.62" y2="727.26"/><g><g id="Vo4Q0W.tif"><g><path class="cls-6" d="M1214.28,1081.31c.87-13.67-.92-27.09-4-40.47-2.76-11.97,.64-14.74,12.73-12.6,22.87,4.03,41.93,16.14,61.1,28.09,4.18,2.6,6.5,6.92,7.65,11.58,4.55,18.51,7.76,37.17,9.49,56.26,3.14,34.56-.97,68.2-9.38,101.52-2.48,9.83-6.18,19.35-9.21,29.04-1.61,5.15-5.3,6.41-9.91,5.14-32.23-8.9-58.75,2.72-83.1,22.74-20.14,16.56-39.37,34-56.94,53.38-10.31,11.37-23.85,18.49-39.2,21.48-7,1.36-10.92-2.42-9.62-9.45,5.28-28.43,10.8-56.82,15.87-85.29,3.13-17.53-4.1-31.97-15.08-44.84-8.53-10-17.11-19.96-27.68-28-3.03-2.3-6.72-4.98-4.74-9.88,2.13-5.28,6.85-5.28,11.35-4.89,10.02,.88,19.1,4.92,28.22,8.81,20.85,8.89,42.3,11.65,64.66,6.72,25.65-5.65,39.13-23.38,47.57-46.61,7.36-20.28,11.53-41.01,10.22-62.73Z"/><path class="cls-7" d="M1094.98,651.87c0-28.1-.19-56.2,.08-84.29,.14-14.72,5.18-28.22,12.13-41.04,8.62-15.89,21.2-29.43,27.17-46.95,1.59-4.66,4.57-.37,6.22,.89,12.71,9.71,23.63,21.29,33.74,33.61,37.84,46.11,56.92,99.48,61.04,158.63,.74,10.67,1.49,21.32,1.45,32.03-.04,8.98-3.81,15.65-11.04,20.75-22.54,15.9-47,25.14-75.14,23.76-14.62-.71-29.31,.1-43.97,.29-13.41,.17-12.25-.25-12.26-13.9l.59-83.78Z"/><path class="cls-7" d="M902.57,657.12c0-26.35-.2-52.7,.09-79.05,.14-12.7-2.06-24.88-7.59-36.11-9.63-19.55-20.05-38.71-30.14-58.03-1.93-3.69-4.26-4.37-7.63-1.49-8.5,7.26-17.25,14.2-24.78,22.56-29.2,32.46-47.28,70.97-59.68,112.21-9.47,31.5-8.45,64.36-9.13,96.89-.09,4.47,2.86,7.3,5.85,9.92,8.83,7.73,18.36,14.52,29.26,18.96,31.46,12.82,64.5,8.3,97.1,8.54,6.56,.05,7.99-3.25,7.92-9.38l-1.27-85.02Z"/><path class="cls-7" d="M1238.25,1347.99c0,25.44,0,49.07,0,72.69,0,57.22,0,114.43-.03,171.65,0,3.48,.04,6.98-.34,10.43-1.14,10.32-4.84,14.12-15.33,14.43-23.1,.68-46.21,.99-69.32,1.37-8.36,.14-14.68-3.58-19.31-10.56-8.25-12.41-16.71-24.67-24.98-37.07-10.87-16.31-16.71-34.21-17.27-53.9-.59-20.88-1.35-41.76-2.39-62.62-.32-6.3,1.15-9.6,7.84-11.76,51.94-16.76,96.17-45.68,133.04-85.92,2.3-2.51,4.62-5,8.09-8.75Z"/><path class="cls-7" d="M763.15,1348.3c10.75,11.93,21.63,23.38,33.59,33.73,31.19,27.02,66.29,47.17,105.42,60.24,3.62,1.21,6.27,2.52,6.28,6.94,.1,25.62-.02,51.24-3.89,76.63-3.26,21.39-14.32,39.5-25.17,57.63-3.95,6.6-8.06,13.1-12.01,19.69-6.77,11.28-16.93,16.88-29.83,16.3-21.38-.96-42.76-.27-64.13-.64-9.71-.17-11.36-1.65-11.56-11.35-.46-22.87,.07-45.74,.21-68.61,.38-61.21,.06-122.43,.07-183.65,0-2.11-.7-4.38,1.02-6.91Z"/><path class="cls-2" d="M1272.39,1856.32c-24.35,0-48.71-.24-73.05,.11-11.21,.16-19.48-4.31-26.23-12.89-27.66-35.13-53.78-71.46-82.32-105.9-4.93-5.95-6.46-12.1-1.99-19.09,4.67-7.32,8.97-14.89,13.65-22.21,11.38-17.82,22.07-35.99,30.23-55.58,4.48-10.74,6.68-11.09,14.9-2.8,57.56,58.09,115.07,116.23,172.63,174.33,10.85,10.95,21.83,21.76,32.7,32.69,2.23,2.24,5.14,4.42,3.83,8.22-1.46,4.22-5.25,2.95-8.31,2.95-25.35,.06-50.69,.03-76.04,.03,0,.05,0,.09,0,.14Z"/><path class="cls-2" d="M727.15,1856.17c-25.35,0-50.71,.03-76.06-.05-2.28,0-5.43,1.43-6.61-1.66-1.1-2.89,1.94-4.27,3.48-6.04,41.58-47.94,86.86-92.34,131.43-137.41,22.9-23.15,44.93-47.17,68.98-69.17,.92-.84,1.83-1.69,2.78-2.49,7.97-6.75,10.6-6.21,14.71,3.32,9.36,21.72,19.53,42.99,33.44,62.26,3.2,4.43,6.45,8.83,9.64,13.27,5.29,7.35,5.78,13.09,.05,19.67-29.06,33.44-53.33,70.58-81.22,104.91-7.21,8.88-15.81,13.63-27.55,13.45-24.35-.37-48.72-.11-73.07-.11,0,.02,0,.04,0,.05Z"/><path class="cls-6" d="M1000.36,845.02c15.64-.31,31.04,2.04,46.52,3.82,8.02,.92,11.69,5.46,14.83,11.64,10.18,20.01,18.14,40.97,22.14,63,5.5,30.31,7.89,61.07,1.89,91.55-4.09,20.78-13.16,39.32-34.38,48.25-27.06,11.38-51.78,2.96-69.42-19.08-16.98-21.21-23.46-46.66-28.73-72.58-7.21-35.44-.3-68.85,14.14-101.24,2.63-5.89,5.54-11.63,8.4-17.39,2.98-6.01,6.84-8.65,13.43-8.01,3.69,.36,7.45,.06,11.18,.06Z"/><path class="cls-2" d="M1180.37,1623.37c15.27-.72,31.67,.2,48.02,1.34,17.33,1.21,33.49,6.86,48.54,15.58,21.53,12.47,43.87,23.3,66.57,33.43,13,5.8,17.53,12.73,16.67,26.86-1.48,24.37-.71,48.75-1.01,73.12-.22,18.16-.01,36.33-.08,54.5-.01,2.87,.96,6.51-2.3,8.09-3.68,1.78-5.19-2.18-7.13-4.03-51.12-48.77-99.86-99.92-149.71-149.96-17.03-17.09-34.1-34.15-51.07-51.31-1.79-1.81-5.37-3.37-4.1-6.35,1.07-2.5,4.5-1.17,6.86-1.2,9.2-.13,18.4-.05,28.75-.05Z"/><path class="cls-2" d="M639.85,1764.56c0-21.39,.33-42.78-.12-64.16-.27-12.71,4.51-20.76,16.37-26.22,31.34-14.42,62.32-29.65,93.34-44.77,8.47-4.13,17.26-6.21,26.57-6.05,16.36,.28,32.71,.95,49.07,1.11,7.16,.07,14.32-.75,21.49-1.06,2.23-.1,4.96,.01,5.97,2.06,1.02,2.06-1.43,3.44-2.75,4.81-66.8,69.57-134.35,138.41-202.96,206.2-1.48,1.46-2.81,4.21-5.41,2.86-2.39-1.24-1.33-4.04-1.33-6.15-.07-22.88-.04-45.76-.04-68.64-.06,0-.13,0-.19,0Z"/><path class="cls-2" d="M640.04,1576.83c0-26.85-.01-53.7,0-80.55,0-2.48-.08-4.99,.23-7.45,1.31-10.46,3.1-12.19,13.73-12.22,30.05-.09,60.11-.08,90.17,.02,9.76,.03,11.59,1.8,12.96,11.39,.28,1.96,.29,3.96,.29,5.95,.12,37.04,.05,74.08,.42,111.12,.1,9.62-3.33,15.56-12.3,19.74-31.03,14.48-61.73,29.66-92.59,44.5-10.86,5.22-12.87,3.92-12.89-8.24-.04-28.09-.01-56.18-.02-84.27Z"/><path class="cls-2" d="M1359.1,1575.34c0,28.62,.02,57.23,0,85.85-.01,11-2.24,12.33-12.35,7.46-30.66-14.75-61.25-29.65-92-44.23-9.24-4.38-12.22-11.75-12.02-21.16,.41-19.14,1.18-38.28,1.22-57.42,.04-16.9-.74-33.8-1.11-50.7-.36-16.48,2.97-19.94,19.01-19.94,26.6,0,53.21,0,79.81,0,16.04,0,17.75,1.71,17.76,18.01,.02,27.37,0,54.74,0,82.11h-.31Z"/><path class="cls-2" d="M640.04,995.45c0-44.05,0-88.09,0-132.14,0-1.74,.02-3.48,.01-5.23,0-2.37,.37-4.75,3.06-5.27,2.47-.47,3.22,1.88,4.15,3.57,6.71,12.3,14.8,23.61,24.7,33.52,20.78,20.78,43.03,39.69,69.44,53.12,2.22,1.13,4.51,2.11,6.66,3.36,7.33,4.24,8.31,8.08,3.17,14.93-20.32,27.09-35.63,56.76-46.07,88.95-8.93,27.55-14.59,55.73-14.74,84.79-.03,6.27-1.9,8.61-8.35,9.19-9.96,.89-19.88,.8-29.77,.36-9.43-.42-11.99-3.63-12.21-13.27-.17-7.46-.05-14.93-.05-22.4,0-37.83,0-75.65,0-113.48Z"/><path class="cls-2" d="M1359.11,850.84c0,4.28,0,7.42,0,10.56,.09,35.81,.12,71.63,.3,107.44,.23,46,.55,91.99,.88,137.99,.05,7.71-.14,15.38-.99,23.06-1.1,9.97-3.46,12.89-13.26,13.42-8.42,.46-16.9,.34-25.34,.04-5.52-.2-9.31-1.62-9.67-9.09-3.05-62.84-22.27-120.17-59.79-171.02-8.16-11.06-7.6-14.32,4.14-20.76,38.05-20.87,70.24-48.41,95.61-83.76,1.59-2.21,3.38-4.29,5.13-6.38,.28-.34,.85-.45,2.99-1.5Z"/><path class="cls-2" d="M640.03,813.57c0-4.65,0-9.29,0-13.94,0-56.95,0-113.9,.03-170.85,0-15.29,3.93-17.83,19.41-17.42,30.3,.82,60.62,.48,90.94,.63,2.24,.01,4.47-.02,6.71,0,8.85,.13,11.01,2.72,9.2,11.57-1.69,8.26-3.06,16.56-4.24,24.91-2.23,15.79-3.03,31.64-2.98,47.54,.04,13.18-5.38,22.46-17.2,28.85-40.37,21.82-75.01,50.3-101.86,88.71Z"/><path class="cls-6" d="M843.37,1178.3c-24.31,1.36-39.92-15.54-52.04-37.59-9.84-17.89-15.1-36.96-15.88-57.47-.45-11.82-2.56-23.57-3.59-35.39-1.64-18.81,13.09-45.31,34.85-41.48,11.47,2.02,21.03,8.7,30.66,14.77,36.44,22.98,60.37,55.48,71.51,97.02,2.82,10.51,7.28,21.22,4.1,32.64-1.38,4.96-4.18,8.73-8.72,11.47-17.63,10.65-36.73,15.73-60.9,16.03Z"/><path class="cls-2" d="M640.05,1394.77c0-19.16-.05-38.32,.01-57.49,.05-14.57,2.95-17.4,17.54-17.38,25.61,.02,51.22,.19,76.83,.03,5.6-.03,8.88,2.42,12.41,6.52,7.57,8.79,9.91,18.35,9.66,29.94-.73,33.83-.25,67.68-.27,101.53,0,10.21-2.36,12.73-12.76,12.77-29.59,.11-59.18,.1-88.77,.01-11.76-.04-14.5-2.86-14.61-15.46-.18-20.16-.05-40.31-.05-60.47Z"/><path class="cls-2" d="M1359.34,713.31c0,29.12,0,58.24,0,87.36,0,1.74,.04,3.49-.02,5.23-.08,2.21,.29,4.89-2.35,5.74-2.96,.95-3.61-1.93-4.71-3.74-5.59-9.15-11.67-17.95-19.07-25.73-22.01-23.14-45.1-45-74.26-59.06-12.52-6.04-17.66-15.92-17.72-29.33-.12-24.15-2.26-48.1-7.25-71.77-1.9-9.04,.13-11.47,9.22-11.49,34.82-.06,69.64-.07,104.45,0,8.9,.02,11.49,2.53,11.53,11.68,.13,30.36,.05,60.73,.05,91.1,.05,0,.1,0,.15,0Z"/><path class="cls-2" d="M1359.3,1394.98c0,20.38,.11,40.77-.04,61.15-.08,10.57-2.57,13.02-13.4,13.07-29.56,.13-59.11,.08-88.67,.03-11.35-.02-15.05-3.47-14.08-14.89,1.69-19.87,.72-39.74,1-59.6,.23-16.15,.03-32.32,.11-48.47,.06-12.59,13.89-26.34,26.4-26.36,25.09-.03,50.17-.1,75.26-.03,10.46,.03,13.38,2.86,13.45,13.21,.13,20.63,.04,41.26,.04,61.9h-.06Z"/><path class="cls-2" d="M1141.32,468.76c-5.18-1.08-10.49-1.43-12.55-6.43-7.06-17.16-18.5-31.74-27.55-47.71-5.73-10.12-5.34-12.94,3.87-20.06,33.21-25.68,66.46-51.32,99.76-76.89,10.94-8.4,13.57-7.84,21.23,3.48,11.16,16.5,20.63,33.99,29.78,51.65,4.57,8.82,8.52,17.96,14.57,25.97,3.46,4.58,3.36,9.01-2.47,11.56-39.6,17.32-77.98,37.22-117.22,55.28-3.12,1.44-6.55,2.21-9.4,3.15Z"/><path class="cls-2" d="M1122.67,217.64c2.49-.52,4.37,.79,6.05,2.26,26.57,23.22,53.7,45.86,75.07,74.35,7.08,9.44,6.99,11.77-2.2,18.83-33.67,25.91-67.38,51.76-101.13,77.56-7.13,5.45-10.16,4.94-15.2-2.4-9.99-14.55-19.44-29.51-34.04-40.17-4.41-3.22-4.53-8.06-1.8-11.9,24.14-33.96,39.07-73.22,62.18-107.75,1.66-2.48,3.15-5.07,4.9-7.48,1.48-2.03,3.2-3.91,6.16-3.31Z"/><path class="cls-2" d="M856.71,469.91c-2.51-.9-5.88-1.82-8.99-3.29-37.73-17.75-75.45-35.54-113.11-53.44-9.49-4.51-10.55-8.03-5.34-16.88,14.5-24.61,29.02-49.2,43.71-73.7,6.61-11.03,11.23-11.63,21.38-3.62,30.4,24,60.81,48.01,91.31,71.88,3.49,2.73,7.57,4.7,11.43,6.94,3.96,2.3,5.31,5.53,2.47,9.26-11.56,15.18-18.09,33.07-27.05,49.65-1.88,3.48-3.89,6.91-6.9,9.65-2.32,2.1-4.95,3.22-8.9,3.54Z"/><path class="cls-2" d="M947.22,339.97c.35,3.64-1.2,6.65-3.53,8.82-12.28,11.44-21.47,25.36-31.4,38.68-5.8,7.78-8.16,8.6-15.82,2.81-23.76-17.94-47.24-36.27-70.79-54.49-10.4-8.05-20.63-16.32-31.1-24.28-5.44-4.14-6.11-8.08-1.78-13.69,19.97-25.92,43.46-48.35,68.07-69.7,3-2.6,5.99-5.23,9.13-7.66,6.41-4.95,8.82-4.71,12.98,2.33,12.12,20.51,24.13,41.09,35.87,61.83,8.68,15.33,16.9,30.93,25.25,46.45,1.51,2.81,3.35,5.59,3.12,8.91Z"/><path class="cls-2" d="M1000.74,267.51c1.86-26.08,1.67-52.2,1.37-78.32-.12-10.44-.58-20.87-.84-31.3-.05-1.98-.07-4,.21-5.96,1.23-8.45,4.49-10.35,12.08-6.42,18.32,9.47,36.3,19.57,53.84,30.42,13.96,8.64,27.31,18.16,40.5,27.93,5.61,4.16,7.13,7.64,2.91,14.04-19.45,29.51-34.23,61.7-52.1,92.14-3.9,6.64-8.18,13.06-12.15,19.67-3.04,5.05-6.73,5.65-11.88,2.97-21.62-11.23-34.65-27.8-33.97-53.23,.11-3.98,.01-7.96,.01-11.94Z"/><path class="cls-2" d="M995.31,225.95c0,23.14-.11,46.27,.05,69.41,.07,10.11-3.75,17.55-12.58,22.83-6.37,3.81-12.08,8.71-18.25,12.89-7.69,5.2-11.05,4.56-15.55-3.56-13.48-24.34-26.8-48.78-40.01-73.27-5.55-10.3-11.6-20.23-18.46-29.73-8.4-11.63-7.38-16.42,4.59-24.24,28.69-18.74,56.94-38.21,87.78-53.41,9.2-4.54,12.25-2.78,12.29,7.43,.1,23.88,.03,47.77,.03,71.65,.04,0,.08,0,.11,0Z"/><path class="cls-2" d="M1202.19,536.06c-3.55,.66-6.32-1.6-8.43-4.99-11.34-18.23-24.14-35.12-41.3-48.49-6.33-4.93-5.12-8.68,3.62-12.93,27.44-13.35,54.96-26.5,82.47-39.69,9.61-4.61,19.19-9.3,28.95-13.59,8.44-3.71,11.53-2.62,15.35,5.73,11.16,24.36,22.15,48.8,32.99,73.3,3.73,8.42,2.51,11.01-6.44,13.41-33.71,9.02-67.49,17.81-101.25,26.64-1.66,.43-3.44,.37-5.97,.61Z"/><path class="cls-2" d="M797.13,538.22c-9.82-2.6-20.35-5.42-30.9-8.15-25.67-6.64-51.37-13.19-77.03-19.87-11.43-2.97-13.14-7.88-6.14-17.5,9.48-13.02,13.91-28.5,20.88-42.74,4.25-8.69,7.84-17.71,12-26.45,3.97-8.33,6.8-9.4,15.32-5.42,28.79,13.45,57.51,27.06,86.24,40.64,9.65,4.56,19.24,9.23,28.88,13.83,5.34,2.55,6.95,5.82,1.52,9.82-18.23,13.43-30.34,31.96-42.42,50.53-1.86,2.86-3.96,5.09-8.36,5.3Z"/><path class="cls-2" d="M1090.32,1856.2c-21.86,0-43.74-.45-65.58,.12-21.48,.57-25.15-4.65-23.2-29.69,.72-9.29,6.89-15.9,13.25-21.82,21.49-19.99,42.45-40.42,59.46-64.56,4.44-6.3,7.13-6.29,11.95,.31,21.55,29.47,45.57,57.05,66.34,87.1,4.44,6.42,10.16,11.53,15.32,17.22,2.41,2.65,4.61,5.81,2.87,9.37-1.61,3.3-5.34,1.87-8.12,1.88-24.1,.11-48.19,.07-72.29,.06Z"/><path class="cls-2" d="M822.55,1856.09c26.83-28.98,47.02-60.49,70.67-89.29,6.62-8.06,13.66-15.74,19.46-24.5,4.28-6.47,8.12-6.28,12.7,.24,15.21,21.69,32.88,41.12,52.86,58.47,10.04,8.72,16.44,19.02,15.42,33.07-.34,4.62,.9,9.35,1.31,14.04,.48,5.41-2.44,7.72-7.5,7.94-1.24,.05-2.48,.08-3.73,.08-51.2-.02-102.39-.04-153.59-.06-1.9,0-3.79,0-7.6,0Z"/><path class="cls-6" d="M1064.89,852.25c21.39,4.29,41.26,11.13,60.44,19.91,35.37,16.2,66.74,38.25,93.58,66.43,28.95,30.4,50.41,65.63,65.23,104.9,.62,1.63,2.57,3.84,.61,5.43-1.95,1.58-3.56-.71-5.19-1.67-20.6-12.19-41.75-22.91-65.91-26.23-5.38-.74-9.39-3.89-11.54-9.38-12.85-32.72-32.53-60.72-58.51-84.34-14.57-13.25-30.95-23.99-47.44-34.6-12.55-8.07-23.19-17.86-29.2-31.91-1.06-2.47-2.49-4.83-2.08-8.53Z"/><path class="cls-2" d="M738.62,1314.72c-30.63-.5-59.82,1.73-89-.39-5.9-.43-8.51-3.32-9.11-8.7-.3-2.71-.44-5.45-.45-8.17-.03-43.28-.03-86.57-.01-129.85,0-15.49,2.26-17.8,17.5-17.96,6.46-.07,12.93-.21,19.38-.04,9.13,.24,13.05,4.02,13.41,13.31,1.36,35.63,9.45,69.76,22.72,102.73,6.77,16.82,15.29,32.77,25.56,49.09Z"/><path class="cls-6" d="M857.2,1410.96c-6.92-1.92-13.4-6.6-20.07-10.81-41.72-26.35-73.99-61.71-98.85-104.13-6.04-10.3-11.73-20.78-15.82-32-3.87-10.62,.08-24.23,8.74-31.73,6.11-5.29,9.84-4.79,13.08,2.5,8.08,18.17,16.69,36.11,27.39,52.85,11.49,17.97,27.11,32.35,43.84,45.25,13.64,10.52,29.85,12.66,45.92,7.21,16.87-5.73,32.14-3.81,46.91,5.22,6.38,3.9,12.89,7.42,19.96,9.89,1.29,.45,3.33,.29,3.41,2.26,.07,1.72-1.65,2.23-2.89,3.01-12.33,7.86-25.68,14.01-37.35,22.98-8.53,6.56-15.46,14.71-23.09,22.16-2.91,2.84-5.83,5.44-11.17,5.33Z"/><path class="cls-5" d="M1084.48,1512.54c.51,8.11,1.9,11.62,2.92,17.43,3.54,20.15,11.76,38.3,22.63,55.41-.55,1.64-1.31,3.23-1.63,4.92-5,26.39-10.35,52.76-13.04,79.48-.91,9.1-2.59,18.52-.77,27.84-10.96,21.1-25.64,39.55-41.08,57.41-8.76,10.13-17.96,19.88-26.97,29.8-2.02-21.23,3.02-42.44-.1-63.74-2.41-16.43-4.84-32.84-12.13-47.89-8.07-16.66-13.07-34.19-14.61-52.43-1.52-17.99-3.72-35.82-7.61-53.4-8.02-36.2-15.19-72.49-15.04-109.8,3.55-.09,7.03,.4,10.59,.79-.28,8.18,.52,16.28,1.18,24.44,2.36,28.77,7.32,57.18,11.25,85.73,3.02,21.95,6.13,43.88,8.38,65.93,1.77,17.41,6.45,33.97,15.87,48.89,6.33,10.03,20.73,9.33,26.1-1.14,2.13-4.16,4.18-8.4,5.89-12.75,10.58-26.94,14.24-55.38,17.7-83.81,2.41-19.8,3.78-39.75,6.6-59.48,.63-4.39-1.56-10.34,3.86-13.61Z"/><path class="cls-2" d="M1263.28,1313.67c13.62-22.34,24.32-44.37,32.09-67.78,9.52-28.69,14.84-58.15,15.79-88.34,.18-5.89,2.4-8.03,7.94-7.95,9.89,.14,19.73,.99,29.68,.5,8.2-.4,10.45,2.68,10.45,10.98,0,47-.1,94-.09,141,0,6.64-2.16,11.48-9.49,11.52-28.3,.15-56.59,.06-86.37,.06Z"/><path class="cls-2" d="M707.14,606.02c-17.13,0-34.27,.06-51.4-.02-11.06-.05-13.77-3.96-10.07-14.53,7.6-21.76,15.24-43.51,22.98-65.22,4.37-12.26,7.3-13.5,20.04-10.14,32.8,8.63,65.65,17.09,98.47,25.63,10.39,2.7,11.45,5.56,4.77,14.04-8.64,10.96-13.07,23.85-17.55,36.77-4.2,12.14-6.13,13.47-18.82,13.48-16.14,0-32.28,0-48.42,0Z"/><path class="cls-2" d="M1294.6,604.61c-18.15,0-36.3-.08-54.46,.04-6.17,.04-11.05-1.96-12.56-8.22-3.52-14.57-12-26.63-19.09-39.41-6.75-12.16-5.88-14.53,7.2-17.91,32.16-8.31,64.34-16.56,96.53-24.76,10.51-2.68,13.3-1.44,17.16,8.55,9.29,24.09,18.77,48.13,25.7,73.06,2.13,7.67,1.32,8.64-6.76,8.67-17.9,.05-35.81,.02-53.71,.02v-.04Z"/><path class="cls-5" d="M1054.71,840.29c-2.64-.31-4.35-.67-7.5-1.39-.02-22.05,.19-44.04-2.74-66.04-4.49-33.73-14.17-65.54-31.47-94.91-9.86-16.75-26.06-17.95-38.91-3.37-10.33,11.72-17.01,25.36-22.24,39.8-9.18,25.35-15.58,51.49-20.6,77.94-3.27,17.21-6.61,34.47-6.2,52.14-1.65,.49-3.31,.92-4.94,1.47-5.37,1.81-7.63,.17-7.55-5.74,.11-9.37-.38-18.74-.62-28.12,3.12-.77,2.35-3.33,2.48-5.45,.2-3.46,.04-6.98,.62-10.37,3.25-18.97,7.13-37.75,12.4-56.35,7.84-27.66,17.78-54.23,36.42-76.34,20.14-23.9,28.91-51.63,30.56-82.05,.57-10.52,1.04-21.12,1.38-31.65,.33-10.23,1.04-20.72,1.76-31.02,1.41-20.13,.2-40.43,.52-60.65,.2-12.97-3.01-25.49-4.13-38.26-.84-9.59-4.74-18.86-3.32-28.65,1.91-13.19,3.73-26.4,6.32-39.46,2.1-10.58,4.18-21.39,12.01-29.76,3.48,2.07,6.3,4.23,8.67,5.46-1.01,2.28-1.6,4.59-1.81,7.15-.88,11.08-.94,22.37-3.26,33.16-7.98,37.1-7.52,74.76-8.51,112.33-.47,17.89-.11,35.81-.06,53.72,.02,6.35-.74,12.9,.56,19,4.09,19.2,.92,37.91-3.07,56.5-3.59,16.71,3.07,35.9,17.29,44.24,10.88,6.38,16.91,15.75,19.51,27.62,2.48,11.32,4.75,22.69,6.75,34.1,4.75,27.13,12.08,53.88,9.87,81.97-1.12,14.25-.19,28.67-.19,43.01Z"/><path class="cls-6" d="M740.16,995.16c7.43-14.04,16.14-26.39,25.8-37.92,17.88-21.35,37.72-40.64,60.64-56.79,34.99-24.65,73.32-41.14,115.22-49.46,8.22-1.63,16.53-2.86,24.81-4.19,1.87-.3,4.18-1.14,5.42,.99,1.18,2.02-.52,3.8-1.44,5.47-6.16,11.13-16.26,16.54-28.28,18.31-33.59,4.93-56.72,23.78-72.92,52.86-13.27,23.84-29.93,44.81-52.69,60.69-14.9,10.4-31.27,12.79-48.22,10.07-9.37-1.5-18.2,2.45-28.33-.03Z"/><path class="cls-6" d="M1054.71,1441.22c-7.43,4.64-15.09,4.53-22.19,5.32-48.16,5.32-94.81-1.38-139.96-18.87-6.71-2.6-13.43-5.15-20.12-7.78-4.9-1.92-5.35-5.15-2.91-9.49,6.18-11.01,27.34-20.34,40.03-18.31,11.52,1.84,23.24,2.43,34.68-.72,8.51-2.34,14.76-7.78,19.15-15.49,5.45-9.56,12.27-17.8,24.03-19.26,12.45-1.54,24.47,2.01,36.53,4.31,2.59,.49,2.49,3.23,1.56,5.63-1.78,4.63-3.7,9.23-5.04,13.99-4.01,14.2-.08,26.48,9.98,36.83,7.76,7.99,15.87,15.63,24.25,23.85Z"/><path class="cls-6" d="M899.86,1327.36c6.31-10.76,13.6-19.62,17.53-30.42,4.62-12.7,5.11-26.15,7.31-39.27,1.33-7.89,4.11-14.68,9.99-20.21,5.47-5.15,7.12-5.1,11.54,1.12,7.17,10.09,13.68,20.6,21.8,30.08,11.11,12.97,24.69,22.19,40.22,28.46,23.65,9.54,42.69,24.76,58.14,44.79,3.02,3.92,6.1,7.81,8.92,11.87,1.99,2.86,1.93,4.71-2.51,5.13-13.37,1.28-26.53-.59-39.71-2.17-13.95-1.68-27.84-4.01-41.83-5.33-8.87-.84-16.52-3.52-22.15-10.47-8.35-10.33-19.06-14.22-32.12-13.68-11.89,.5-23.82,.1-37.15,.1Z"/><path class="cls-5" d="M732.36,930.13c-29.75-16.22-54.64-37.85-73.52-66.16-.52-.79-.72-1.8-1.06-2.7-.05-18.03-.11-36.06-.16-54.09,11.98-21.1,29.55-36.99,48.45-51.52,7.01-5.39,13.82-11.18,21.82-15.2-1.99,13.42-3.03,26.92-2.99,40.49,.06,24.96-.41,49.93,1.59,74.85,1.98,24.77,3.92,49.55,5.88,74.33Z"/><path class="cls-6" d="M699.41,1150.82c-.75-51,10.11-94.96,30.25-137.06,4.63-9.66,10.85-13.39,20.43-13.36,11.38,.04,22.83-1.23,34.12,1.35,1.37,.31,3.29-.44,3.95,1.25,.82,2.08-1.22,3.07-2.39,4.17-29.74,28.08-42.98,65.06-54.02,102.8-5.51,18.82-4.76,38.61-2.78,58.29,1.61,16,4.2,31.83,6.14,47.77,.75,6.21-2.76,10.92-7.1,14.89-3.95,3.62-7.39,10.52-12.72,9.09-5.24-1.41-4.62-9.09-5.98-14.15-6.95-25.96-11.16-52.29-9.91-75.03Z"/><path class="cls-5" d="M978.58,1791.8c-10.26-6.61-17.5-16.22-25.14-25.43,4.63-5.41,3.9-12.46,3.92-18.44,.08-33.49,3.16-66.82,4.31-100.21,.94-27.28,2.28-54.4,6.79-81.27,1.15-6.85-.65-14.38,4.03-22.08,2.71,18.97,4.88,36.6,7.8,54.11,4.52,27.06,9.93,53.98,17.28,80.41,6.18,22.24,10.22,44.82,12.16,67.72,1.32,15.49,2.35,31.06,1.68,46.65-.08,1.75-.02,3.52,1.68,4.66-1.09,1.34-2.17,2.68-3.26,4.02-7.2,8.75-13.94,9.14-21.85,1.04-2.4-2.46-4.33-5.39-6.47-8.11,2.34-1.92,1.58-4.6,1.5-6.97-.38-11.02-1.38-22.03-1.33-33.04,.15-36.94-4.57-73.51-7.91-110.18-.11-1.2,.42-2.75-1.22-2.95-1.85-.23-2.55,1.36-2.73,2.88-.19,1.71-.17,3.48-.02,5.2,2.4,27.24,5.3,54.44,7.09,81.72,1.31,20.04,1.18,40.18,1.69,60.27Z"/><path class="cls-5" d="M1031.02,338.3c7.17,5.24,14.12,12.39,19.25,18.12,2.31,9.08-1.18,18.23,.07,27.22,2.89,20.86,.81,41.87,2.6,62.79,2.03,23.76-.64,47.63-1.47,71.43-.53,15.22-2.81,30.39-4.77,45.53-2.38,18.43-2.34,36.8,.93,55.06,2.78,15.53,7.47,30.63,11.33,45.91,6.28,24.87,10.85,50.08,13.41,75.68,1.96,19.62,2.09,39.08-.61,58.6-.84-17.37-1.27-34.74-3.32-52.02-2.32-19.64-5.93-39.01-10.57-58.26-4.54-18.82-11.21-36.68-21.16-53.23-9.58-15.92-15.25-33.26-12.72-51.49,2.88-20.74,6.83-40.98,5.81-62.35-1.57-32.58-1.75-65.24-3.27-97.87-1-21.55-.99-43.24,1.64-64.69,.83-6.77-.49-13.99,2.85-20.43Z"/><path class="cls-5" d="M938.17,365.18c6.02-6.41,14.64-14.97,22.55-21.84,1.65,16.47,4.33,32.85,4.41,49.44,.13,26.75-.31,53.42-2.64,80.15-2.91,33.41-3.31,67.05-7.93,100.32-1.79,12.91-3.91,25.79-7.62,38.46-4.98,17.04-13.46,32.47-20.47,48.54-6.14,14.09-9.94,28.99-16.51,42.85-.39-7-.44-14.1-.44-21.01,4.57-3.43,2.96-9.09,4.82-13.56,4.65-11.14,9.37-22.32,12.19-34.11,3.68-15.37,6.27-30.9,7.92-46.69,1.47-14.11,1.35-28.25,1.44-42.25,.19-31.09-2.93-62.12-1.06-93.35,1.73-28.93,1.56-57.99,3.33-86.96Z"/><path class="cls-5" d="M992.04,1458.62c6.92-.05,13.83-.1,20.75-.15-1.41,21.45-1.87,42.93-1.28,64.4,.5,18.23,1.62,36.43,8.89,53.64,3.63,8.6,10.14,13.4,18.01,12.15,6.4-1.02,9.65-6.46,12.39-10.97,10.21-16.79,14.97-35.66,18.8-54.76,4.51-22.44,8.52-44.99,14.53-67.11,.44,9.96,.88,19.93,1.32,29.89-4.04,2.47-3.33,6.8-3.86,10.49-3.21,22.21-7.09,44.29-9.69,66.62-2.02,17.36-4.26,34.81-6.33,52.18-2.5,21.06-8.9,40.54-17.5,59.51-4.02,8.86-14.52,11.34-19.32,5.2-6.82-8.73-10.82-18.94-12.74-29.68-2.51-14.04-4.54-28.22-5.82-42.42-1.36-15.03-3.58-29.93-5.43-44.89-1.8-14.61-3.17-29.28-5.04-43.88-2.56-20.08-7.61-39.84-7.71-60.23Z"/><path class="cls-5" d="M1115.3,501.42c-5.17,9.52-12.06,17.97-16.27,28.14-6.47,15.61-10.02,31.68-10.02,48.56,0,86.61,0,173.22,0,259.83,0,9.24-.85,9.88-8.97,7.1-.53-4.53,1.36-8.83,1.42-13.24,.36-24.35,3.15-48.52,2.13-73.07-1.43-34.64-1.39-69.41-2.07-104.12-.36-18.26-.47-36.52-1.09-54.79-1.02-29.97-.52-59.99-3.36-89.9-1.54-16.23-2.06-32.64-4.94-48.63-5.27-29.34-5.25-58.96-6.89-88.52,10.76,8.85,17.02,21.02,23.87,32.71,8.48,14.48,16.66,29.14,24.96,43.73-2.67,.46-2.75,2.48-2.67,4.53,.52,14.08,.99,28.15,1.7,42.22,.09,1.85,1.43,3.63,2.2,5.44Z"/><path class="cls-4" d="M1065.24,372.79c1.64,29.55,1.62,59.18,6.89,88.52,2.87,15.99,3.4,32.4,4.94,48.63,2.84,29.91,2.34,59.93,3.36,89.9,.62,18.27,.72,36.53,1.09,54.79,.69,34.71,.64,69.47,2.07,104.12,1.01,24.55-1.78,48.72-2.13,73.07-.06,4.41-1.96,8.71-1.42,13.24-4.75,.24-9.27-.62-13.52-2.8,.04-15.92-.23-31.85,.19-47.77,.52-19.89-.31-39.74-3.42-59.3-3.49-21.94-7.67-43.8-15.68-64.76-6-15.69-11.28-31.62-21.89-45.04-6.29-7.97-7.91-17.16-7.09-27.16,2.01-24.57,5.88-48.96,4.92-73.8-.85-22.25-.2-44.55-.23-66.84,0-2.23,0-4.48-.24-6.7-1.7-16.23-4.05-32.49-2.15-48.81,1.81-15.5,2.29-31,2.61-46.56,.14-6.72,.1-13.9,4.4-19.89,1.03,.89,2.05,1.78,3.08,2.68-3.34,6.44-2.02,13.66-2.85,20.43-2.63,21.45-2.65,43.14-1.64,64.69,1.52,32.62,1.7,65.29,3.27,97.87,1.03,21.37-2.93,41.6-5.81,62.35-2.53,18.23,3.15,35.57,12.72,51.49,9.95,16.55,16.62,34.41,21.16,53.23,4.64,19.25,8.25,38.62,10.57,58.26,2.04,17.28,2.48,34.64,3.32,52.02,2.69-19.51,2.57-38.98,.61-58.6-2.56-25.6-7.13-50.81-13.41-75.68-3.86-15.29-8.54-30.38-11.33-45.91-3.27-18.26-3.32-36.63-.93-55.06,1.96-15.13,4.24-30.31,4.77-45.53,.83-23.8,3.51-47.66,1.47-71.43-1.79-20.92,.28-41.93-2.6-62.79-1.25-8.99,2.24-18.14-.07-27.22,1.45,1.75,2.77,2.55,4.46,4.56,.55,17.36,.57,34.74,.99,52.1,.98,40.71,1.85,81.52-1.5,122.22-.53,6.38-.83,12.83-2.1,19.07-2.71,13.33-4,27.01-2.87,40.24,1.95,22.79,6.05,45.39,12.4,67.55,8.02,28.01,14.92,56.32,15.64,86.2,4.29-4.83,1.1-9.84,1.12-14.42,.13-29.76,.07-59.54-.44-89.3-.43-25.21-1.66-50.41-2.35-75.62-.39-14.34,.54-28.77-.79-43-2.71-29-5.91-58-10.1-86.82-3.44-23.67-4.77-47.31-3.89-71.15,1.47,1.58,2.94,3.16,4.41,4.74Zm14.54,380.72c-.9-.03-1.79-.05-2.69-.08v62.13c.73-20.68,3.88-41.29,2.69-62.05Zm-3.59,79.62c1-4.16,1.33-6.57,.04-9.36-1.02,2.72-.72,5.05-.04,9.36Z"/><path class="cls-5" d="M919.04,1447.91c8.94,2,17.88,4,26.82,6-.03,6.21-.02,12.43-.11,18.64-.67,46.05,1.59,92.13-1.47,138.16-1.19,17.92-2.01,35.86-3,53.79-1.02,18.52-1.19,37.15-3.47,55.52-.99,8,1.61,16.44-2.54,24.05-4.15-4.31-8.47-8.5-10.58-14.32,1.3-19.64-.65-39.23-1.88-58.76-1.47-23.37-1.64-46.74-.39-70,1.21-22.63,1.96-45.31,.42-67.75-1.95-28.44-4.82-56.77-3.82-85.32Z"/><path class="cls-5" d="M909.67,664.29c-2.04-17.27-1.5-34.63-1.07-51.92,.59-23.79,1.61-47.52-6.16-70.54,2.48-2.18,1.51-5.1,1.48-7.7-.27-24.16,.11-48.31,1.62-72.41,1.19-18.9,4.26-37.66,4.27-56.65,7.03-9.65,15.81-22.7,23.73-34.04-.9,9.31-2.49,18.61-2.59,27.93-.39,36.33-.11,72.66-1.47,108.98-.83,22.24-.85,44.56,.04,66.79,1.11,27.71-4.81,53.95-14.2,79.62-1.25,3.43-1.28,8.08-5.66,9.93Z"/><path class="cls-5" d="M1042.77,838.72c-3.49-.47-6.99-.93-10.48-1.4,3.63-11.55,.43-23.14-.14-34.65-1.34-27.07-6.2-53.49-21.05-76.8-9.27-14.55-23.52-23.09-36.67-5.83-1.34,1.76-2.52,3.71-3.39,5.74-5.24,12.22-10.11,24.52-13.81,37.37-7.29,25.26-10.99,50.93-11.45,77.15-5.86,1.72-11.78,3.03-17.92,3.17,1.59-15.48,4.52-30.73,7.12-46.06,6.08-35.78,15.08-70.55,31.11-103.19,3.33-6.78,7.75-13.19,13.61-18.41,12.35-10.99,25.51-3.14,32.44,10.1,6.71,12.83,13.52,25.7,17.95,39.64,6.69,21.05,11.43,42.4,12.76,64.54,.98,16.24,.08,32.42-.09,48.63Z"/><path class="cls-6" d="M1263.34,1261.78c12.02,1.88,15.17,5.34,9.44,16.06-17.77,33.21-38.16,64.43-66.58,89.63-11.65,10.33-23.6,20.37-36.36,29.36-2.06,1.45-4.27,3.39-6.64,1.47-2.38-1.92,.04-4.07,.75-6.01,4.53-12.27,10.19-24.14,10.23-37.75,.03-9.82-2.67-18.52-7.77-26.7-4.28-6.87-3.2-8.47,5.1-9.51,13.98-1.75,27.78-3.99,40.66-10.56,12.86-6.57,21.89-16.39,26.55-29.7,4.16-11.87,13.04-15.28,24.6-16.29Z"/><path class="cls-6" d="M1051.16,1368.05c13.18-1.47,24.7-2.36,36.08-4.13,15.16-2.36,28.77-9.08,42.01-16.55,1.2-.68,2.4-2.4,3.78-.93,.65,.69,.55,2.35,.37,3.5-1.33,8.35,.44,16.18,4.04,23.64,3.68,7.61,7.7,15.05,11.34,22.67,3.96,8.29,2.95,11.09-4.9,15.71-22.46,13.22-47.22,20.45-71.96,27.73-5.31,1.56-9.21-2.04-8.01-8.01,1.94-9.66,.64-19.33,1.29-28.97,.87-13.08-2.27-24.63-14.05-34.66Z"/><path class="cls-5" d="M1060.83,368.05c-.88,23.83,.45,47.48,3.89,71.15,4.19,28.82,7.39,57.81,10.1,86.82,1.33,14.23,.4,28.67,.79,43,.69,25.21,1.91,50.41,2.35,75.62,.51,29.76,.58,59.53,.44,89.3-.02,4.58,3.17,9.58-1.12,14.42-.72-29.89-7.62-58.19-15.64-86.2-6.34-22.16-10.45-44.76-12.4-67.55-1.13-13.23,.16-26.92,2.87-40.24,1.27-6.24,1.58-12.7,2.1-19.07,3.35-40.7,2.48-81.5,1.5-122.22-.42-17.35-.44-34.74-.99-52.1,2.15,2.52,3.76,4.52,6.09,7.08Z"/><path class="cls-5" d="M963.5,340.96c3.6-3.3,8.03-6.54,13.35-10.25,.32,21.09,2.61,42.13,1.75,63.25-.09,2.23-.47,4.66,.22,6.68,5.99,17.64,4.18,35.87,4.17,53.92-.01,34.53,.56,69.05-1.15,103.58-.46,9.19-.36,18.39-3.53,26.99-8.67,23.53-21,45.38-32.1,67.78-12.38,24.97-28.55,48.32-32.1,76.99-.3,2.4-1.55,4.75-3.96,6.05-.07-1.99-.13-3.97-.2-5.96,.49-1.08,1.29-2.13,1.43-3.25,3.41-26.81,11.8-52.41,24.44-75.84,16.67-30.92,22.48-64.13,26.15-98.06,2.06-19.08,1.96-38.39,3.22-57.58,1.22-18.5,3.49-36.94,4.27-55.45,.7-16.52,1.95-32.99,.5-49.67-1.44-16.54-2.98-32.96-6.47-49.18Z"/><path class="cls-5" d="M754.78,943.29c-7.89-1.37-13.68-6.42-19.63-11.21,2.37-3.87,1.86-8.19,1.6-12.35-.85-13.79-.91-27.74-3.24-41.29-2.34-13.63-2.7-27.33-3.92-40.97-1.22-13.64-1.85-27.44-1.35-41.11,.59-16.23,2.78-32.4,4.02-48.62,.23-3,1.33-6.54-1.76-9.04,6.17-6,14.04-9.21,21.5-13.05,3.51-1.81,7.18-1.9,10.22,1.32-4.82,4-4.2,9.81-4.33,14.98-.22,8.88,1.29,18.06,.52,26.62-1.64,18.3-.92,36.63-1.68,54.89-1.66,39.89-.04,79.9-1.96,119.83Z"/><path class="cls-5" d="M1027.94,335.62c-4.3,5.99-4.26,13.18-4.4,19.89-.32,15.57-.8,31.07-2.61,46.56-1.9,16.32,.45,32.58,2.15,48.81,.23,2.22,.24,4.47,.24,6.7,.03,22.28-.63,44.59,.23,66.84,.95,24.84-2.91,49.23-4.92,73.8-.82,10,.79,19.19,7.09,27.16,10.61,13.43,15.89,29.35,21.89,45.04,8.01,20.96,12.19,42.82,15.68,64.76,3.11,19.56,3.94,39.41,3.42,59.3-.42,15.91-.15,31.84-.19,47.77-2.46-.26-4.93-.52-7.39-.78,.05-3.48-.24-7.01,.21-10.44,3.38-25.98,1.07-51.8-2.62-77.49-3.41-23.72-9.39-46.99-13.57-70.56-2.67-15.05-10.2-26.91-21.15-36.22-11.84-10.07-15.35-22.26-14.06-36.75,1.49-16.74,4.41-33.44,3.31-50.29-1.79-27.4-3.99-54.74-1.59-82.24,2.17-24.86,2.81-49.83,4.38-74.74,1.54-24.42,4.08-48.69,6.35-73.02,2.52,1.97,5.05,3.94,7.57,5.91Z"/><path class="cls-5" d="M1179.76,891.82c-3-2.1-6.01-4.19-9.01-6.29,2.52-1.76,1.79-4.43,1.81-6.82,.06-8.43,.22-16.87-.03-25.3-.37-12.66-1.05-25.31-1.6-37.96-4.26,11.43-2.54,23.1-2.79,34.65-.25,11.62,2.37,23.14,1.48,34.8-2-1.36-4.01-2.72-6.01-4.08,2.65-6.57,0-13.15-.02-19.72-.06-16.49,.04-32.98-.59-49.45-.25-6.65-.33-13.95-6.51-18.74-2.66-2.06-5.18-1.54-6.85,1.38-2.05,3.59,.56,3.83,3.19,4.63,5.48,1.67,7.6,5.45,6.78,11.35-.64,4.63-.37,9.39-.38,14.1-.04,11.29-.01,22.58-.01,33.87-2.86-3.95-4.47-8.26-6.56-12.32-1.55-3-4.34-3.25-6.9-1.3-1.91,1.45-1.75,3.17,.23,4.91,7.87,6.89,8.56,16.22,8.46,25.78-4.45-2.35-8.91-4.71-13.36-7.06,1.58-6.76-.36-13.35-.66-19.96-.38-8.61,3.33-17.33,4.54-26.1,.96-7.01,3.63-13.87,2.09-21.23-5.99,20.91-11.11,41.96-13.36,63.63-.97-.56-1.94-1.11-2.92-1.67-.72-23.58,5.11-46.68,5.71-70.58-2.4,1.57-2.46,3.55-2.74,5.51-3.04,20.85-6.11,41.69-9.18,62.53-.5-.04-.91-.24-1.25-.6,.41-20.79,5.05-41,8.41-61.38,2.37-14.33,5.31-28.57,8-42.85,1.01,0,2.02,0,3.03,0-1.46,8.5-10.26,41.27-9.06,50.31,3.13-8.48,14.07-40.63,13.5-50.33,6.98-.47,13.96-.94,20.93-1.41,2.47,12.76,.41,25.97,3.18,38.72,4.47-12.89,2.64-25.79,1.22-38.69,1.52-.03,3.04-.05,4.56-.08,0,.5-.01,.99,0,1.49,.28,26.44,1.58,52.8,4.19,79.14,1.89,18.99-.75,38.08-1.51,57.12Z"/><path class="cls-5" d="M978.45,329.63c4.43-4.77,10.17-7.83,15.5-11.34,4.73-3.11,8.52-.54,13.22,2.36-3.15,.16-3.69,2.89-4.9,4.98-5.98,10.3-6.6,22.2-10,33.24-7.72,25.03-3.98,50.18-1.17,75.09,2.17,19.27,3.5,38.36,2.58,57.7-1.54,32.6-2.48,65.23-4.42,97.82-1.23,20.69-7.22,39.27-18.68,56.27-2.76,4.1-6.72,7.14-9.5,11.38-8.56,13.02-15.94,26.64-23.27,40.38-6.75,12.64-10.36,26.2-14.28,39.65-4.61,15.82-7.93,32.02-11.81,48.06-1.35-7.93-2.45-15.88-1.52-23.95,5.03-3.46,2.08-8.74,2.9-13.13,6.11-32.52,19.45-62.13,35.65-90.69,12.33-21.72,25.05-43.26,31.63-67.75,3.16-11.75,5.67-23.67,6.62-35.65,1.18-14.81,.01-29.75-.78-44.65-1.92-36.17,1.79-72.4-2.65-108.67-2.41-19.69-.86-39.98-1.96-59.98-.22-3.99-.28-7.93-3.15-11.12Z"/><path class="cls-5" d="M951.52,1763.88c-4.9-4.69-9.26-9.83-13.11-15.42,.46-1.1,1.14-2.17,1.33-3.31,3.82-23.2,3.42-46.76,5.73-70.11,2.45-24.78,4.38-49.65,4.42-74.65,.04-26.56,1.4-53.11,1.77-79.67,.31-22.03,.04-44.06,.03-66.1,5.03,.75,10.05,1.49,15.08,2.24,0,5.42-.75,10.97,.16,16.23,4.12,23.81,3.53,47.78,.73,71.46-2.62,22.11-6.03,44.12-7.72,66.36-1.87,24.62-2.67,49.29-4.95,73.9-2.43,26.25-3.74,52.65-3.46,79.07Z"/><path class="cls-5" d="M1015.84,1458.12c4-.23,8.01-.46,12.01-.68,.71,16.51-2.29,33.24,4.16,49.39,2.58,6.47,6.37,11.31,13.1,11.35,6.08,.04,9.64-5.19,12.43-10.33,4.38-8.05,8.22-16.34,10.57-25.21,2.89-10.93,7.51-21.48,7.4-33.09,1.15-.43,1.97-.49,3.09-.92,0,.75,.08,1.51-.04,2.23-3.84,22.3-7.73,44.58-12.64,66.71-3.64,16.4-7.12,32.78-14,48.14-2.73,6.1-4.99,13.31-12.65,15.33-7.33,1.93-13.17-3.31-17.42-13.68-5.57-13.61-5.31-27.99-5.76-42.14-.72-22.35-.23-44.73-.26-67.1Z"/><path class="cls-5" d="M1211.41,917.97c-5-4.37-10.01-8.74-15.01-13.12,1.01-21.64,2.56-43.27,2.91-64.92,.49-30.53,.1-61.07,.08-91.61,6.5-3.53,12.99-7.06,19.49-10.58,.13,3.7,.56,7.4,.79,11.05,.68,10.77,2.44,21.41,2.59,32.28,.2,14.58-2.3,28.93-2.19,43.51,.09,13.02-1.98,26.05-3.23,39.07-1.74,18.11-3.6,36.22-5.41,54.33Z"/><path class="cls-5" d="M776.98,928.55c-4.77,5.27-9.62,10.45-16.29,13.4-.23-6.59-.33-13.18-.34-19.76-.04-23.81,1.72-47.54,1.91-71.32,.31-39.99,.95-79.97,1.45-119.95,.01-.99,.15-1.98,.22-2.97,6.34,3.95,12.25,8.47,17.82,13.44-.54,6.65-1.92,13.36-1.45,19.93,1.09,15.08-1.79,29.91-1.71,44.94,.07,14.5-1.36,29.03-2.53,43.52-.93,11.55,.09,23.19-.84,34.59-.99,12.17-.58,24.26-1.03,36.38-.11,2.91-.67,6.12,2.79,7.82Z"/><path class="cls-5" d="M1029.33,837.26c-1.01-.1-2.03-.21-3.04-.31,.66-17.08-.71-34.08-4.71-50.62-2.83-11.69-6.33-23.79-15.5-32.32-9.98-9.29-16.38-7.2-21.66,3.18-7.08,13.91-12.37,28.53-16.29,43.61-3.22,12.37-8.33,24.4-7.29,37.61-4.04,.59-8.09,1.18-12.13,1.77,2.85-23.97,5.7-47.94,11.71-71.4,3.87-15.1,7.49-30.26,16.7-43.29,7.43-10.5,19.42-11.89,26.04-2.69,14.36,19.94,20.75,42.83,24.78,66.72,2.68,15.93-.83,31.9,1.39,47.75Z"/><path class="cls-4" d="M1020.38,329.71c-2.27,24.32-4.81,48.6-6.35,73.02-1.57,24.91-2.2,49.88-4.38,74.74-2.4,27.51-.21,54.84,1.59,82.24,1.1,16.85-1.82,33.54-3.31,50.29-1.29,14.49,2.22,26.68,14.06,36.75,10.95,9.31,18.48,21.17,21.15,36.22,4.18,23.58,10.16,46.84,13.57,70.56,3.69,25.69,6,51.51,2.62,77.49-.45,3.43-.16,6.96-.21,10.44-1.47-.39-2.94-.78-4.41-1.18,0-14.34-.93-28.75,.19-43.01,2.21-28.09-5.12-54.84-9.87-81.97-2-11.41-4.26-22.78-6.75-34.1-2.6-11.87-8.63-21.24-19.51-27.62-14.22-8.34-20.88-27.53-17.29-44.24,3.99-18.59,7.17-37.29,3.07-56.5-1.3-6.1-.54-12.65-.56-19-.05-17.91-.41-35.82,.06-53.72,.99-37.57,.53-75.22,8.51-112.33,2.32-10.79,2.38-22.08,3.26-33.16,.2-2.55,.8-4.87,1.81-7.15,.92,.73,1.84,1.46,2.75,2.19Z"/><path class="cls-5" d="M1123.27,755.61c2.02,0,4.04,0,6.06,0-2.24,15.3-4.41,30.62-6.73,45.91-2.77,18.21-5.67,36.4-8.51,54.6-.24-.06-.48-.11-.72-.18-15.78-4.76-23.13-4.34-20.59-26.79,2.41-21.31,.65-43.11,.39-64.69-.07-5.92,1.56-8.77,7.92-8.44,5.42,.28,10.88-.23,16.32-.39-.19,2.21-.08,4.5-.63,6.62-4.48,17.41-10.28,34.56-10.16,52.86,.01,1.75-2.49,4.38,.28,4.99,2.93,.64,2.79-2.57,3-4.75,2.04-20.46,8.65-39.89,13.37-59.75Z"/><path class="cls-5" d="M804.15,905.35c-4.99,4.35-9.98,8.7-14.97,13.04-.05-57.71-.1-115.42-.15-173.13,5.49,2.4,10.97,4.8,16.46,7.2,.08,7.2-1.2,14.38-1.26,21.48-.39,43.8-.13,87.61-.08,131.41Z"/><path class="cls-4" d="M951.52,1763.88c-.28-26.42,1.03-52.82,3.46-79.07,2.28-24.61,3.08-49.28,4.95-73.9,1.69-22.23,5.11-44.25,7.72-66.36,2.8-23.68,3.39-47.65-.73-71.46-.91-5.26-.15-10.82-.16-16.23,1.45,.15,2.9,.31,4.35,.46,.27,9.9,.77,19.82,1.09,29.69,.68,20.45,2.38,40.65,5.75,60.83,1.71,10.22,3.44,20.46,4.94,30.71,3.39,23.2,5.61,46.65,11.83,69.29,13.23,48.16,20.92,97.04,21.2,147.03-.94,1.01-1.89,2.03-2.83,3.04-1.7-1.14-1.75-2.91-1.68-4.66,.67-15.6-.37-31.17-1.68-46.65-1.95-22.9-5.98-45.48-12.16-67.72-7.35-26.43-12.76-53.35-17.28-80.41-2.92-17.51-5.1-35.14-7.8-54.11-4.68,7.7-2.89,15.23-4.03,22.08-4.5,26.87-5.84,53.98-6.79,81.27-1.15,33.39-4.23,66.72-4.31,100.21-.01,5.98,.71,13.03-3.92,18.44-.64-.83-1.29-1.66-1.93-2.48Z"/><path class="cls-5" d="M1015.93,1794.88c-.27-49.99-7.96-98.87-21.2-147.03-6.22-22.64-8.43-46.09-11.83-69.29-1.5-10.25-3.24-20.49-4.94-30.71-3.37-20.18-5.07-40.39-5.75-60.83-.33-9.87-.82-19.78-1.09-29.69,.5,.03,1.01,.06,1.51,.08,.49,7.29,.99,14.58,1.46,21.87,.99,15.51,2.57,30.95,5.61,46.21,5.31,26.58,10.31,53.2,14.45,80,2.13,13.83,2.86,27.83,6.31,41.54,2.8,11.11,7.28,21.31,11.6,31.79,6.94,16.87,10.4,34.4,10.41,53.12,0,17.51,1.34,35.04-.04,52.58-.07,.86,1.39,1.84,2.14,2.77-1.96,3.58-5.58,5.27-8.64,7.6Z"/><path class="cls-4" d="M992.04,1458.62c.1,20.4,5.15,40.15,7.71,60.23,1.86,14.6,3.23,29.27,5.04,43.88,1.85,14.96,4.07,29.85,5.43,44.89,1.28,14.2,3.31,28.38,5.82,42.42,1.92,10.74,5.92,20.95,12.74,29.68,4.8,6.14,15.3,3.65,19.32-5.2,8.6-18.97,14.99-38.45,17.5-59.51,2.06-17.36,4.3-34.82,6.33-52.18,2.6-22.33,6.47-44.42,9.69-66.62,.53-3.69-.18-8.02,3.86-10.49-.86,8.75-1.29,17.86-.97,26.82-5.42,3.27-3.24,9.22-3.86,13.61-2.82,19.74-4.19,39.68-6.6,59.48-3.46,28.44-7.12,56.88-17.7,83.81-1.71,4.35-3.75,8.58-5.89,12.75-5.36,10.47-19.77,11.17-26.1,1.14-9.42-14.92-14.1-31.48-15.87-48.89-2.25-22.05-5.35-43.97-8.38-65.93-3.93-28.54-8.89-56.96-11.25-85.73-.67-8.16-1.47-16.26-1.18-24.44,1.46,.09,2.93,.18,4.39,.27Z"/><path class="cls-5" d="M1221.72,735.65c4.02-2.78,8.04-5.57,12.06-8.35-1.18,18.73,3.18,37.28,1.58,56.05-1.9,22.18-1.9,44.46-2.77,66.69-1.07,27.4,.4,54.91-5.02,82.04-5.41-2.89-9.48-7.29-13.37-11.89,1.05-6.82,2.53-13.6,3.06-20.45,1.85-23.82,5.31-47.45,6.57-71.38,1.14-21.73,2.51-43.34,.96-65.07-.66-9.25,.69-18.72-3.07-27.63Z"/><path class="cls-4" d="M911.7,785.22c3.88-16.04,7.2-32.23,11.81-48.06,3.92-13.46,7.53-27.01,14.28-39.65,7.33-13.74,14.71-27.36,23.27-40.38,2.79-4.24,6.74-7.28,9.5-11.38,11.46-17,17.44-35.58,18.68-56.27,1.95-32.59,2.88-65.22,4.42-97.82,.91-19.34-.41-38.43-2.58-57.7-2.81-24.91-6.55-50.06,1.17-75.09,3.41-11.04,4.02-22.94,10-33.24,1.22-2.09,1.75-4.81,4.9-4.98,.6,.47,1.19,.94,1.79,1.41-7.83,8.36-9.92,19.17-12.01,29.76-2.59,13.06-4.41,26.28-6.32,39.46-1.42,9.79,2.48,19.06,3.32,28.65,1.12,12.78,4.34,25.29,4.13,38.26-.32,20.22,.89,40.52-.52,60.65-.72,10.3-1.44,20.79-1.76,31.02-.34,10.53-.81,21.14-1.38,31.65-1.65,30.42-10.42,58.14-30.56,82.05-18.63,22.12-28.57,48.68-36.42,76.34-5.27,18.6-9.15,37.38-12.4,56.35-.58,3.39-.42,6.91-.62,10.37-.13,2.13,.65,4.68-2.48,5.45-.57-8.95-1.11-17.89-.23-26.85Z"/><path class="cls-5" d="M823.4,756.82c5.97,.08,11.95,.17,17.92,.25-.6,42.03-3.51,83.92-7.33,125.75-3.71,3.27-7.64,6.23-12.13,8.37,.51-44.79,1.02-89.59,1.53-134.38Z"/><path class="cls-4" d="M978.45,329.63c2.88,3.19,2.94,7.13,3.15,11.12,1.1,20-.46,40.29,1.96,59.98,4.45,36.28,.74,72.5,2.65,108.67,.79,14.9,1.95,29.84,.78,44.65-.95,11.98-3.47,23.9-6.62,35.65-6.58,24.49-19.3,46.03-31.63,67.75-16.21,28.56-29.54,58.17-35.65,90.69-.83,4.39,2.13,9.67-2.9,13.13-.72-8.44-.68-16.88-.04-25.32,2.41-1.3,3.66-3.65,3.96-6.05,3.55-28.67,19.72-52.02,32.1-76.99,11.1-22.4,23.43-44.25,32.1-67.78,3.17-8.6,3.08-17.79,3.53-26.99,1.71-34.53,1.13-69.05,1.15-103.58,0-18.05,1.82-36.28-4.17-53.92-.69-2.02-.31-4.45-.22-6.68,.87-21.13-1.42-42.16-1.75-63.25,.53-.36,1.07-.71,1.6-1.07Z"/><path class="cls-4" d="M963.5,340.96c3.49,16.22,5.03,32.65,6.47,49.18,1.45,16.68,.2,33.16-.5,49.67-.78,18.51-3.05,36.95-4.27,55.45-1.26,19.18-1.16,38.49-3.22,57.58-3.67,33.93-9.48,67.14-26.15,98.06-12.64,23.43-21.03,49.03-24.44,75.84-.14,1.13-.94,2.17-1.43,3.25,0-8.96,.01-17.92,.02-26.88,6.57-13.86,10.37-28.76,16.51-42.85,7-16.07,15.48-31.51,20.47-48.54,3.71-12.67,5.82-25.55,7.62-38.46,4.62-33.27,5.03-66.91,7.93-100.32,2.33-26.73,2.76-53.4,2.64-80.15-.08-16.6-2.76-32.98-4.41-49.44,.92-.79,1.85-1.59,2.77-2.38Z"/><path class="cls-5" d="M1239.76,937.28c-.52,.02-1.04,.03-1.56,.05,1.04-17.01,1.89-34.02,3.16-51.01,1.78-23.84,4.61-47.63,5.61-71.5,.97-23.22,.41-46.53,.07-69.79-.08-5.71,.52-11.87-3.41-17.12,3.75,54.77-4.45,108.87-6.97,163.25-2.58-4.1,.13-7.77,.07-11.69-.41-28.92,2.14-57.75,2.87-86.63,.56-22.43-.6-44.86-2.89-67.2,4.46-2.5,8.95-3.01,13.48-.17-.18,20.72,5.24,40.9,5.07,61.79-.13,16.22-.39,32.35-2.38,48.38-2.99,24.13-6.27,48.26-10.44,72.21-1.71,9.83,.47,19.85-2.69,29.43Z"/><path class="cls-5" d="M1327.81,785.17c12.83,11.29,19.88,26.26,26.24,41.61,1.56,3.77,1.1,7.81-.63,11.54-7.31,15.75-16.09,30.52-28.45,42.92-1.4-30.16,2.37-60.25,1.4-90.41-.06-1.87,.94-3.77,1.44-5.66Z"/><path class="cls-4" d="M1236.72,725.63c2.3,22.34,3.45,44.77,2.89,67.2-.72,28.88-3.28,57.71-2.87,86.63,.06,3.92-2.66,7.59-.07,11.69,2.51-54.38,10.72-108.48,6.97-163.25,3.93,5.26,3.33,11.41,3.41,17.12,.33,23.26,.9,46.56-.07,69.79-1,23.87-3.83,47.66-5.61,71.5-1.27,16.99-2.12,34.01-3.16,51.01-1.1-.15-2.2-.31-3.3-.46,.93-9.21-.68-18.53,1.04-27.76-2.74,8.57-2.92,17.48-3.82,26.29-1.9-.59-3.67-1.35-4.56-3.33,5.42-27.13,3.95-54.64,5.02-82.04,.87-22.22,.87-44.51,2.77-66.69,1.61-18.76-2.76-37.32-1.58-56.05,.98-.55,1.96-1.11,2.94-1.66Z"/><path class="cls-1" d="M1062.11,1405.97c-.82,7.73-2.77,15.12-6.34,22.06-1.59,3.08-3.4,3.97-6.23,1.14-5.96-5.98-12.45-11.47-18.05-17.76-9.06-10.2-9.79-30.65-2.12-42.04,3.03-4.51,6.61-5.41,11.39-2.5,11.53,7.01,21.95,25.89,21.36,39.11Z"/><path class="cls-4" d="M1042.77,838.72c.18-16.21,1.07-32.39,.09-48.63-1.34-22.15-6.07-43.49-12.76-64.54-4.43-13.94-11.24-26.81-17.95-39.64-6.93-13.25-20.1-21.1-32.44-10.1-5.86,5.22-10.28,11.63-13.61,18.41-16.04,32.64-25.03,67.41-31.11,103.19-2.61,15.33-5.54,30.58-7.12,46.06-.93,.33-1.87,.66-2.8,.99-.41-17.67,2.94-34.93,6.2-52.14,5.02-26.45,11.42-52.58,20.6-77.94,5.23-14.44,11.91-28.08,22.24-39.8,12.85-14.58,29.05-13.38,38.91,3.37,17.3,29.37,26.98,61.18,31.47,94.91,2.93,22,2.72,43.99,2.74,66.04-1.48-.06-2.96-.12-4.44-.18Z"/><path class="cls-5" d="M1033.71,1457c12.97-2.29,25.95-4.58,38.92-6.88-4.17,17.45-8.21,34.9-17.04,50.85-2.88,5.2-6.03,11.7-11.67,10.56-5.69-1.15-7.33-8.44-8.67-14.38-3-13.31-3.06-26.69-1.54-40.16Z"/><path class="cls-5" d="M1182.95,752.91c4.5-1.16,9-2.32,13.5-3.48-2.19,11.53-1.47,23.19-1.49,34.81-.06,39.3,.4,78.6-1.67,117.87-3.35-1.95-6.47-4.19-8.95-7.22,.1-5.91-.62-11.96,.46-17.68,2.14-11.37,.82-22.84,.57-34.06-.31-13.95-.8-28.06-2.22-42.06-1.63-16.01-.6-32.11-.19-48.18Z"/><path class="cls-1" d="M1153.55,1398.55c-4.73-15.36-15.69-27.09-15.46-43.16,.15-10.33,5.08-18.57,11.31-26.1,3.23-3.89,6.97-2.46,10.28,.74,10.53,10.18,13.96,26.15,7.91,39.86-4.1,9.29-8.92,18.26-14.04,28.66Z"/><path class="cls-4" d="M909.67,664.29c4.38-1.85,4.4-6.49,5.66-9.93,9.38-25.67,15.3-51.9,14.2-79.62-.89-22.23-.87-44.56-.04-66.79,1.36-36.33,1.08-72.65,1.47-108.98,.1-9.32,1.69-18.62,2.59-27.93,1.54-1.95,3.08-3.91,4.62-5.86-1.77,28.96-1.6,58.02-3.33,86.96-1.87,31.23,1.24,62.25,1.06,93.35-.08,14,.04,28.14-1.44,42.25-1.65,15.79-4.24,31.32-7.92,46.69-2.82,11.79-7.54,22.97-12.19,34.11-1.86,4.47-.25,10.13-4.82,13.56,.05-5.93,.1-11.87,.15-17.8Z"/><path class="cls-5" d="M1291.9,752.57c6.74,4.39,12.84,9.53,18.13,15.61-1.47,12.73-2.37,25.5-3.37,38.26-1.08,13.75-2.25,27.49-3.11,41.26-1.2,19.16-3.64,38.23-3.99,57.45-1.56,1.26-3.12,2.51-4.69,3.77-.63-31.53,1-63.06-1.15-94.61-1.4-20.51,.15-41.19-1.82-61.74Z"/><path class="cls-4" d="M951.69,1454.63c.01,22.03,.28,44.07-.03,66.1-.38,26.56-1.73,53.11-1.77,79.67-.04,24.99-1.97,49.87-4.42,74.65-2.31,23.35-1.91,46.91-5.73,70.11-.19,1.15-.88,2.21-1.33,3.31-1.89-2.11-1.98-2.75-3.12-4.4,4.15-7.61,1.55-16.04,2.54-24.05,2.27-18.37,2.44-37,3.47-55.52,.99-17.93,1.81-35.87,3-53.79,3.06-46.03,.8-92.11,1.47-138.16,.09-6.21,.08-12.43,.11-18.64,1.94,.24,3.88,.48,5.82,.71Z"/><path class="cls-5" d="M1113,1589.99c5.65,7.16,11.71,14.02,16.44,21.87,1.77,6.27-4.06,12.62,.19,18.87-4.59,13.85-12.55,26.06-19.03,38.98-3.29,6.56-7.4,12.71-11.14,19.04,.05-5.71-.58-11.52,.26-17.12,4.06-27.27,6.97-54.75,13.29-81.65Z"/><path class="cls-4" d="M1281.61,744.55l10.29,8.02c1.97,20.55,.42,41.24,1.82,61.74,2.16,31.56,.52,63.08,1.15,94.61-1.48,.95-1.84,1.07-2.87,1.99-.44-50.88-1.75-101.72-5.11-152.49-1.07,15.59-2.7,31.09-2.55,46.71,.15,15.33-.2,30.67-.91,46.03-1.01,21.9-2.08,43.94-.25,65.91-2.43,2.1-3.97,2.65-6.16,4.01,.03-18.93-.98-37.93,.33-56.78,1.95-28,2.69-56.04,4.04-84.06,.57-11.88,.17-23.81,.21-35.71"/><path class="cls-1" d="M1166.56,1310.56c18.67-19.06,37.17-36.96,62.98-44.47,2.02-.59,4.18-2.74,6.22-.88,2.32,2.12,.44,4.63-.33,6.88-9.15,27.06-42.26,45.81-68.87,38.47Z"/><path class="cls-5" d="M1322.01,884.62c-4.87,5.94-10.05,11.54-16.61,15.68,.03-7.67-.58-15.41,.22-23.01,2.44-23.15,3.19-46.41,5.29-69.57,1.06-11.69,.6-23.57,3.8-35.03,3.4,3.08,6.79,6.16,10.19,9.25-2.54,4.99-3.32,10.28-3.19,15.86,.15,5.95,.15,11.94-.42,17.86-2.09,21.57-.61,43.18-.73,64.76,0,1.39,.95,2.79,1.46,4.19Z"/><path class="cls-5" d="M886.09,444.72c5.15-10.6,11.35-20.03,17.93-31.22,.02,3.68,.26,7.37,0,11.03-1.44,21.09-3.37,42.15-4.37,63.25-.72,15.07-.24,30.19-.29,45.28-4.91-8.13-8.55-16.36-13.46-25.09,1.06-19.24-1.49-38.59,1.59-57.79,.3-1.87,.48-4.02-1.41-5.47Z"/><path class="cls-5" d="M808.77,753.12c3.39,.81,6.78,1.63,10.17,2.44-.51,16.23-1.3,32.46-1.45,48.7-.24,26.55-.05,53.1-.09,79.65,0,3.25,0,6.46,1.71,9.37-2.92,3.61-6.89,5.91-10.61,8.54,.09-49.57,.18-99.14,.27-148.7Z"/><path class="cls-4" d="M1015.84,1458.12c.02,22.37-.46,44.75,.26,67.1,.45,14.15,.19,28.53,5.76,42.14,4.24,10.37,10.09,15.62,17.42,13.68,7.66-2.02,9.92-9.23,12.65-15.33,6.88-15.36,10.36-31.74,14-48.14,4.91-22.12,8.8-44.4,12.64-66.71,.13-.73,.03-1.49,.04-2.23,5.97-2.08,5.54,2.95,5.54,7.19-6,22.12-10.02,44.67-14.53,67.11-3.84,19.1-8.59,37.97-18.8,54.76-2.74,4.5-6,9.95-12.39,10.97-7.87,1.25-14.38-3.55-18.01-12.15-7.27-17.21-8.39-35.41-8.89-53.64-.59-21.47-.13-42.96,1.28-64.4,1.09-.39,1.97-.13,3.05-.35Z"/><path class="cls-4" d="M1024.57,1787.28c-.75-.93-2.21-1.91-2.14-2.77,1.38-17.55,.04-35.07,.04-52.58,0-18.71-3.46-36.25-10.41-53.12-4.31-10.48-8.8-20.68-11.6-31.79-3.45-13.71-4.18-27.71-6.31-41.54-4.14-26.8-9.14-53.42-14.45-80-3.05-15.26-4.62-30.7-5.61-46.21-.47-7.29-.97-14.58-1.46-21.87,1.48,.05,2.96,.1,4.44,.15-.15,37.31,7.02,73.6,15.04,109.8,3.89,17.58,6.1,35.41,7.61,53.4,1.54,18.24,6.54,35.77,14.61,52.43,7.29,15.05,9.72,31.46,12.13,47.89,3.12,21.3-1.92,42.51,.1,63.74-.66,.82-1.32,1.64-1.98,2.46Z"/><path class="cls-5" d="M898.28,1564.91c3.74-9.73,7.49-19.46,11.23-29.19,.64,4.15,1.82,8.3,1.82,12.45,.09,53.92,0,107.84-.03,161.76-2.55-2.68-4.51-5.74-5.89-9.17,2.33-1.92,1.63-4.6,1.48-6.95-1.07-16.26-1.81-32.55-2.57-48.8-.82-17.53-1.76-35.06-2.54-52.6-.41-9.25,.18-18.66-3.51-27.5Z"/><path class="cls-4" d="M789.03,745.27c.05,57.71,.1,115.42,.15,173.13-.51,.44-1.01,.88-1.52,1.32-2.65-2.42-1.52-5.6-1.52-8.44-.07-48.44-.05-96.89-.05-145.33,0-2.42,0-4.84,0-7.26-1.96,9.17-2.02,18.3-2.68,27.39-2.24,30.82-3.54,61.71-4.68,92.6-.59,16.13-.1,32.29-.1,48.44-.55,.48-1.1,.96-1.65,1.44-3.46-1.7-2.9-4.91-2.79-7.82,.45-12.12,.04-24.21,1.03-36.38,.93-11.4-.09-23.04,.84-34.59,1.17-14.49,2.61-29.02,2.53-43.52-.08-15.02,2.81-29.86,1.71-44.94-.48-6.57,.91-13.28,1.45-19.93,2.81,.58,5.22,1.91,7.28,3.89Z"/><path class="cls-4" d="M1029.33,837.26c-2.23-15.86,1.29-31.83-1.39-47.75-4.03-23.89-10.42-46.78-24.78-66.72-6.62-9.19-18.61-7.81-26.04,2.69-9.21,13.03-12.83,28.19-16.7,43.29-6.01,23.46-8.86,47.43-11.71,71.4-.98,.04-1.95,.09-2.93,.13,.46-26.21,4.16-51.88,11.45-77.15,3.71-12.85,8.57-25.15,13.81-37.37,.87-2.03,2.05-3.98,3.39-5.74,13.15-17.26,27.4-8.72,36.67,5.83,14.85,23.31,19.71,49.72,21.05,76.8,.57,11.5,3.77,23.1,.14,34.65-.99-.02-1.97-.04-2.96-.07Z"/><path class="cls-5" d="M1259.22,729.69c1.04,8.1,.94,16.29,1.63,24.38,2.1,24.81,5.01,49.38,3.2,74.55-2,27.85-7.52,54.99-11.54,82.43-1.21,8.28-6.67,16.42-2.25,25.26-2.02,1.01-3.84,1.53-5.97,1.48-.96-5.52,.84-10.82,1.46-16.19,2.09-18.11,4.33-36.2,6.7-54.28,2.69-20.53,6.14-40.96,6.71-61.72,.71-26.25-1.47-52.32-4.54-78.34"/><path class="cls-1" d="M900.76,1384.07c15.36-12.64,32.01-21.66,51.38-25.31,1.95-.37,3.91-.84,5.87-.88,3.28-.06,7.61-2.47,9.54,.6,1.57,2.5-1.53,5.91-3.17,8.63-11.77,19.48-42.66,27.97-63.62,16.95Z"/><path class="cls-5" d="M968.17,837.32c-1.49,.15-2.97,.31-4.46,.46,5.03-26.09,13.24-51.1,26.05-74.41,3.59-6.54,9.37-6.37,14.64-.85,2.13,2.22,3.42,4.87,4.59,7.59,9.12,21.14,14.16,43.08,12.72,66.26-.94-.09-1.89-.17-2.83-.26-.56-6.87-.86-13.77-1.75-20.6-1.13-8.59-3.66-16.8-8.59-24.08-5.59-8.25-15.44-9.15-21.86-1.47-9.16,10.97-15.41,23.5-16.94,37.92-.34,3.21-.87,6.33-1.57,9.45Z"/><path class="cls-4" d="M763.94,727.94c-.08,.99-.21,1.98-.22,2.97-.51,39.98-1.14,79.97-1.45,119.95-.19,23.78-1.95,47.52-1.91,71.32,.01,6.58,.1,13.18,.34,19.76-1.65,1.85-3.51,2.79-5.91,1.34,1.92-39.93,.3-79.94,1.96-119.83,.76-18.26,.04-36.58,1.68-54.89,.77-8.56-.74-17.74-.52-26.62,.13-5.17-.49-10.99,4.33-14.98,.57,.32,1.14,.65,1.71,.97Z"/><path class="cls-5" d="M869.65,862.85c-1.99,1.01-3.97,2.01-5.96,3.02-.33-36.34,.78-72.62,4.45-108.8,4.5,.02,9,.03,13.5,.05-1.68,27.5-6.57,54.61-9.55,81.95-.86,7.9-5.77,15.47-2.43,23.79Z"/><path class="cls-4" d="M1021.72,836.36c1.44-23.18-3.61-45.12-12.72-66.26-1.17-2.71-2.46-5.36-4.59-7.59-5.27-5.51-11.05-5.69-14.64,.85-12.81,23.31-21.02,48.32-26.05,74.41-.96,.21-1.92,.42-2.88,.63-1.05-13.21,4.07-25.24,7.29-37.61,3.93-15.08,9.21-29.7,16.29-43.61,5.28-10.38,11.69-12.47,21.66-3.18,9.16,8.53,12.67,20.64,15.5,32.32,4,16.54,5.37,33.53,4.71,50.62-1.65-.27-3.06-.41-4.57-.58Z"/><path class="cls-4" d="M919.04,1447.91c-1.01,28.55,1.87,56.89,3.82,85.32,1.54,22.44,.79,45.12-.42,67.75-1.25,23.25-1.08,46.62,.39,70,1.22,19.53,3.18,39.12,1.88,58.76-2.08-3.61-2.98-4.57-4.49-6.26,.11-18.35-.49-36.68-.96-55.01-.66-25.75-1.35-51.57,.9-77.39,1.98-22.76-1.6-45.58-1.6-68.42,0-7.29-1.01-14.77-1.2-22.19-.07-3.02-.35-6.03-3.73-7.42-.06-.98-.12-1.96-.18-2.93,.15-.13,.43-.28,.42-.39-.04-.35-.19-.69-.3-1.03-.22-11.59-.63-23.17-.52-34.76,.03-3.19-1.32-9.37,5.98-6.03Z"/><path class="cls-5" d="M1283.19,917.08c-1.83-21.97-.77-44.01,.25-65.91,.71-15.36,1.06-30.7,.91-46.03-.15-15.62,1.48-31.12,2.55-46.71,3.36,50.77,4.67,101.61,5.11,152.49-2.6,2.54-5.51,4.64-8.82,6.16Z"/><path class="cls-5" d="M1263.76,732.58c2.45,1.54,4.91,3.08,7.36,4.62,.09,16.83,.23,33.64,1.14,50.49,1.02,18.81,.93,37.74-1.2,56.56-1.83,16.2-3.69,32.4-5.22,48.63-1.19,12.53-4.55,24.86-3.49,37.6,0,0,.09-.22,.09-.22-.59,.4-1.18,.79-1.78,1.19-2.43,1.21-4.87,2.41-7.3,3.62,2.58-28.01,8.54-55.51,12.32-83.35,2.96-21.79,4.56-43.57,3.58-65.57-.8-17.97-5.45-35.53-5.5-53.57Z"/><path class="cls-5" d="M854.69,757.08c3-.01,6-.03,9.01-.04-1.4,14.96-3.55,29.89-4.03,44.88-.72,22.06-.26,44.16-.3,66.25-3.05,1.63-6.09,3.25-9.14,4.88-.51-38.73,1.31-77.38,4.47-115.97Z"/><path class="cls-5" d="M1281.61,744.55c-.04,11.91,.36,23.83-.21,35.71-1.35,28.02-2.09,56.05-4.04,84.06-1.31,18.84-.3,37.85-.33,56.78-2.89,2.99-6.24,5.26-10.2,6.58,2-19.62,2.84-39.45,6.28-58.82,5.06-28.46,4.12-57.03,3.49-85.55-.32-14.7-1.66-29.48-2.59-44.21,2.54,1.82,5.07,3.64,7.61,5.47Z"/><path class="cls-1" d="M904.95,1334.33c20.16-4.15,38.97-6.86,55.89,6.79,2.2,1.78,5.43,4.01,4.47,7.03-.81,2.56-4.59,2.41-7.16,2.98-14.89,3.32-29,1.11-42.17-6.6-4.02-2.35-7.61-5.27-11.03-10.19Z"/><path class="cls-4" d="M1114.08,856.12c2.84-18.2,5.74-36.39,8.51-54.6,2.32-15.29,4.49-30.6,6.73-45.91,3.46-.02,6.93-.04,10.39-.06-2.69,14.28-5.63,28.51-8,42.85-3.37,20.38-8,40.59-8.41,61.38-3.56,0-6.47-1.63-9.23-3.65Z"/><path class="cls-5" d="M913.64,1493.05c3.38,1.4,3.66,4.4,3.73,7.42,.18,7.42,1.2,14.9,1.2,22.19,0,22.84,3.58,45.66,1.6,68.42-2.25,25.82-1.56,51.64-.9,77.39,.47,18.34,1.06,36.67,.96,55.01-3.38-2.96-5.31-6.89-7.31-10.79,4.14-2.05,2.96-5.91,2.96-9.22,0-62.53,.62-125.07-1.49-187.58-.08-2.26,1.16-5.2-2.34-6.25,.36-5.54,.71-11.09,1.6-16.59Z"/><path class="cls-4" d="M1254.62,727.26c3.07,26.02,5.25,52.1,4.54,78.34-.56,20.76-4.01,41.2-6.71,61.72-2.37,18.07-4.61,36.17-6.7,54.28-.62,5.38-2.42,10.67-1.46,16.19-1.82,.06-3.04-.11-4.52-.52,3.15-9.58,.98-19.6,2.69-29.43,4.17-23.95,7.44-48.07,10.44-72.21,1.99-16.03,2.25-32.16,2.38-48.38,.16-20.89-5.25-41.07-5.07-61.79,1.47,.6,2.95,1.2,4.42,1.8Z"/><path class="cls-5" d="M778.63,927.11c0-16.15-.49-32.31,.1-48.44,1.14-30.88,2.44-61.78,4.68-92.6,.66-9.09,.73-18.22,2.68-27.39,0,2.42,0,4.84,0,7.26,0,48.44-.02,96.89,.05,145.33,0,2.84-1.13,6.03,1.52,8.44-3.01,2.47-6.02,4.93-9.03,7.4Z"/><path class="cls-4" d="M912.04,1509.64c3.5,1.06,2.26,3.99,2.34,6.25,2.11,62.51,1.48,125.05,1.49,187.58,0,3.31,1.18,7.17-2.96,9.22-.53-.92-1.07-1.84-1.6-2.76,.04-53.92,.12-107.84,.03-161.76,0-4.15-1.19-8.3-1.82-12.45,.84-8.69,1.68-17.39,2.53-26.08Z"/><path class="cls-4" d="M1259.22,729.69c1.04,8.1,.94,16.29,1.63,24.38,2.1,24.81,5.01,49.38,3.2,74.55-2,27.85-7.52,54.99-11.54,82.43-1.21,8.28-6.67,16.42-2.25,25.26,1.16-.11,1.93-.53,3.11-1.25,2.58-28.01,8.54-55.51,12.32-83.35,2.96-21.79,4.56-43.57,3.58-65.57-.8-17.97-5.45-35.53-5.5-53.57l-4.55-2.9Z"/><path class="cls-4" d="M730.5,738.7c3.1,2.51,1.99,6.04,1.76,9.04-1.23,16.22-3.42,32.39-4.02,48.62-.5,13.68,.13,27.47,1.35,41.11,1.22,13.65,1.58,27.35,3.92,40.97,2.33,13.55,2.38,27.5,3.24,41.29,.26,4.15,.77,8.47-1.6,12.35-.93-.65-1.86-1.3-2.79-1.95-1.96-24.78-3.89-49.55-5.88-74.33-2-24.92-1.52-49.89-1.59-74.85-.03-13.57,1.01-27.07,2.99-40.49,.87-.59,1.74-1.18,2.61-1.76Z"/><path class="cls-5" d="M884.4,1588.24c3.28-6.84,7.52-13.09,11.97-19.2,.08,7.15-.12,14.31,.29,21.44,1.32,22.89,2.9,45.77,4.31,68.65,.52,8.37-.76,16.78,1.26,25.15,.68,2.82,1.48,6.45-1.43,9.07-1.29-2.04-1.8-3.1-3.01-5.05,.04-6.17,.3-12.24-.72-18.47-2.62-16.03-4.1-32.23-6.64-48.27-1.76-11.14-1-22.76-6.02-33.31Z"/><path class="cls-4" d="M1271.13,737.2c.09,16.83,.23,33.64,1.14,50.49,1.02,18.81,.93,37.74-1.2,56.56-1.83,16.2-3.69,32.4-5.22,48.63-1.19,12.53-4.55,24.86-3.49,37.6,1.49-.94,2.98-1.87,4.47-2.81,2-19.62,2.84-39.45,6.28-58.82,5.06-28.46,4.12-57.03,3.49-85.55-.32-14.7-1.66-29.48-2.59-44.21l-2.88-1.88Z"/><path class="cls-4" d="M1221.72,735.65c3.76,8.91,2.41,18.38,3.07,27.63,1.55,21.73,.19,43.33-.96,65.07-1.26,23.93-4.72,47.56-6.57,71.38-.53,6.86-2.01,13.64-3.06,20.45-.93-.73-1.85-1.47-2.78-2.2,1.81-18.11,3.67-36.21,5.41-54.33,1.25-13.02,3.32-26.05,3.23-39.07-.11-14.58,2.4-28.93,2.19-43.51-.15-10.87-1.91-21.51-2.59-32.28-.23-3.65-.65-7.35-.79-11.05,.95-.7,1.9-1.4,2.84-2.09Z"/><path class="cls-4" d="M978.58,1791.8c-.51-20.09-.37-40.23-1.69-60.27-1.79-27.28-4.7-54.48-7.09-81.72-.15-1.72-.17-3.49,.02-5.2,.17-1.51,.88-3.11,2.73-2.88,1.64,.2,1.11,1.75,1.22,2.95,3.34,36.68,8.06,73.24,7.91,110.18-.04,11.01,.95,22.02,1.33,33.04,.08,2.37,.83,5.05-1.5,6.97-.98-1.02-1.95-2.04-2.93-3.07Z"/><path class="cls-4" d="M1033.71,1457c-1.52,13.46-1.46,26.84,1.54,40.16,1.34,5.94,2.98,13.23,8.67,14.38,5.64,1.14,8.79-5.37,11.67-10.56,8.83-15.95,12.88-33.4,17.04-50.85,.96-.19,1.92-.38,2.88-.56,.1,11.6-4.51,22.16-7.4,33.09-2.35,8.87-6.2,17.16-10.57,25.21-2.79,5.13-6.35,10.36-12.43,10.33-6.73-.04-10.52-4.88-13.1-11.35-6.45-16.15-3.45-32.88-4.16-49.39,1.95-.15,3.91-.3,5.86-.44Z"/><path class="cls-5" d="M880.11,858.33c-1.88,.82-3.75,1.64-5.63,2.45,1.61-14.19,3.1-28.4,4.87-42.57,2.54-20.34,7.09-40.45,6.68-61.11,2.51,.58,4.42-.03,7.51,1.38-.01,1.24,.08,2.48-.06,3.71-3.56,32.17-8.44,64.16-13.38,96.14Z"/><path class="cls-4" d="M808.77,753.12c-.09,49.57-.18,99.14-.27,148.7-.99,1.75-2.51,2.83-4.35,3.53-.05-43.8-.31-87.61,.08-131.41,.06-7.09,1.35-14.28,1.26-21.48,1.09,.22,2.18,.44,3.27,.65Z"/><path class="cls-4" d="M819.11,893.29c-1.72-2.92-1.71-6.12-1.71-9.37,.03-26.55-.16-53.1,.09-79.65,.15-16.24,.95-32.47,1.45-48.7,1.68-.28,3.11,.36,4.46,1.26-.51,44.79-1.02,89.59-1.53,134.38-.92,.7-1.84,1.39-2.76,2.08Z"/><path class="cls-4" d="M1310.03,768.19c-1.47,12.73-2.37,25.5-3.37,38.26-1.08,13.75-2.25,27.49-3.11,41.26-1.2,19.16-3.64,38.23-3.99,57.45,2.45-1.01,4.22-2.85,5.85-4.86,.03-7.67-.58-15.41,.22-23.01,2.44-23.15,3.19-46.41,5.29-69.57,1.06-11.69,.6-23.57,3.8-35.03l-4.68-4.52Z"/><path class="cls-4" d="M1193.29,902.1c2.07-39.27,1.61-78.57,1.67-117.87,.02-11.62-.7-23.28,1.49-34.81,.98-.37,1.96-.73,2.94-1.1,.02,30.54,.41,61.08-.08,91.61-.35,21.65-1.89,43.28-2.91,64.92-1.04-.92-2.08-1.84-3.11-2.76Z"/><path class="cls-4" d="M1182.95,752.91c-.41,16.06-1.44,32.17,.19,48.18,1.43,14,1.92,28.11,2.22,42.06,.25,11.21,1.56,22.69-.57,34.06-1.07,5.72-.36,11.78-.46,17.68-1.91-.45-3.62-1.19-4.58-3.06,.76-19.04,3.4-38.13,1.51-57.12-2.62-26.34-3.91-52.7-4.19-79.14,0-.5,0-.99,0-1.49,1.83-1.02,3.71-1.79,5.87-1.17Z"/><path class="cls-5" d="M1014.42,835.9c-2-.01-4-.03-6.01-.04-.54-9.36-.88-18.88-5.82-27.17-4.27-7.17-9.11-6.8-14.67-.51-7.26,8.21-7.84,18.29-9.23,28.26-2.02,.18-4.02,.93-6.11,.72,2.11-13.99,4.71-27.78,14.41-38.97,6.72-7.76,13.63-7.51,18.89,1.5,6.48,11.1,9.32,23.28,8.55,36.21Z"/><path class="cls-4" d="M1154.45,875.31c.1-9.56-.59-18.89-8.46-25.78-1.99-1.74-2.14-3.45-.23-4.91,2.56-1.95,5.36-1.71,6.9,1.3,2.09,4.06,3.71,8.37,6.56,12.32,0-11.29-.03-22.58,.01-33.87,.02-4.7-.25-9.47,.38-14.1,.81-5.9-6.85-11.3-8.77-7.27-5.77,16.05-4.61,2.21-1.2-8.71,1.01-3.22,4.2-3.44,6.85-1.38,6.18,4.79,6.26,12.09,6.51,18.74,.62,16.47,.53,32.96,.59,49.45,.02,6.57,2.67,13.15,.02,19.72-2.98-1.96-6.86-2.43-9.17-5.51Z"/><path class="cls-4" d="M899.37,533.07c.05-15.1-.43-30.22,.29-45.28,1-21.11,2.94-42.17,4.37-63.25,.25-3.66,0-7.36,0-11.03,1.93-2.81,3.87-5.61,5.8-8.42,0,18.99-3.08,37.75-4.27,56.65-1.51,24.1-1.89,48.25-1.62,72.41,.03,2.6,1,5.52-1.48,7.7-1.66-3.77-1.98-5.89-3.08-8.76Z"/><path class="cls-4" d="M900.79,1693.35c2.91-2.62,2.11-6.25,1.43-9.07-2.01-8.37-.74-16.79-1.26-25.15-1.41-22.88-2.99-45.76-4.31-68.65-.41-7.13-.21-14.29-.29-21.44,.64-1.38,1.27-2.75,1.91-4.13,3.7,8.84,3.1,18.25,3.51,27.5,.78,17.54,1.72,35.07,2.54,52.6,.76,16.26,1.5,32.55,2.57,48.8,.15,2.35,.85,5.03-1.48,6.95-2.05-2.15-3.05-4.76-4.63-7.41Z"/><path class="cls-5" d="M845.75,757.09c1.02,.01,2.03,.02,3.05,.04-.09,13.58-.53,27.14-1.2,40.72-1.16,23.19-.34,46.47-.34,69.71,0,2.19-.4,4.56,1.89,6.06-3.13,1.79-6.26,3.58-9.39,5.36,2-40.63,3.99-81.26,5.99-121.89Z"/><path class="cls-4" d="M1014.42,835.9c.77-12.93-2.07-25.11-8.55-36.21-5.26-9.01-12.16-9.26-18.89-1.5-9.69,11.2-12.29,24.99-14.41,38.97-1.47,.05-2.94,.1-4.41,.15,.71-3.12,1.23-6.23,1.57-9.45,1.53-14.42,7.77-26.94,16.94-37.92,6.42-7.68,16.27-6.78,21.86,1.47,4.93,7.28,7.46,15.48,8.59,24.08,.89,6.83,1.19,13.73,1.75,20.6-1.49-.07-2.98-.13-4.46-.2Z"/><path class="cls-5" d="M892.06,853.86c-2.48,1.07-4.93,2.13-7.49,2.95,.81-5.1,1.48-10.23,2.46-15.3,5.3-27.41,9.09-54.98,9.47-82.94,10.72-2.48,6.89,5.41,7.31,10.27-4.23,3-3.87,7.83-4.18,12.01-1.79,24.42-4.83,48.7-7.57,73.01Z"/><path class="cls-4" d="M886.04,757.1c.41,20.66-4.14,40.77-6.68,61.11-1.77,14.17-3.26,28.38-4.87,42.57-1.85,1.13-2.75,1.28-4.83,2.07-3.33-8.32,1.57-15.88,2.43-23.79,2.98-27.34,7.87-54.45,9.55-81.95,1.47,0,2.94-.01,4.4-.02Z"/><path class="cls-4" d="M859.36,868.17c.04-22.09-.42-44.19,.3-66.25,.49-14.99,2.63-29.92,4.03-44.88,1.48,0,2.96,.02,4.43,.02-3.67,36.18-4.77,72.46-4.45,108.8-1.49,.83-2.73,1.82-4.33,2.3Z"/><path class="cls-4" d="M845.75,757.09c-2,40.63-3.99,81.26-5.99,121.89-1.59,1.79-3.38,2.73-5.76,3.85,3.82-41.84,6.73-83.73,7.33-125.75,1.47,0,2.95,.01,4.42,.02Z"/><path class="cls-4" d="M1113,1589.99c-6.32,26.91-9.22,54.38-13.29,81.65-.83,5.59-.21,11.41-.26,17.12,0,3.84-3.97,5.5-4.86,8.85-1.81-9.32-.14-18.74,.77-27.84,2.69-26.71,8.04-53.09,13.04-79.48,.32-1.68,1.07-3.28,1.63-4.92,1.73,1.06,2.21,2.92,2.96,4.61Z"/><path class="cls-4" d="M1324.9,781.95c-2.54,4.99-3.32,10.28-3.19,15.86,.15,5.95,.15,11.94-.42,17.86-2.09,21.57-.61,43.18-.73,64.76,0,1.39,.95,2.79,1.46,4.19,.99-1.13,1.97-2.26,2.96-3.39-1.4-30.16,2.37-60.25,1.4-90.41-.06-1.87,.94-3.77,1.44-5.66l-2.91-3.22Z"/><path class="cls-4" d="M849.15,873.62c-2.29-1.5-1.89-3.87-1.89-6.06,0-23.24-.82-46.53,.34-69.71,.68-13.58,1.12-27.13,1.2-40.72,1.96-.01,3.93-.03,5.89-.04-3.17,38.59-4.99,77.23-4.47,115.97-.26,.38-.61,.57-1.07,.57Z"/><path class="cls-4" d="M896.49,758.57c-.38,27.97-4.17,55.54-9.47,82.94-.98,5.07-1.65,10.2-2.46,15.3-1.33,.64-2.67,1.16-4.45,1.51,4.93-31.98,9.82-63.97,13.38-96.14,.14-1.22,.04-2.47,.06-3.71,.98,.03,1.97,.06,2.95,.08Z"/><path class="cls-4" d="M884.4,1588.24c5.02,10.55,4.26,22.18,6.02,33.31,2.54,16.04,4.02,32.25,6.64,48.27,1.02,6.23,.76,12.31,.72,18.47-2.25-3.2-3.16-4.39-4.33-6.85-1.76-15.09-3.28-30.21-5.36-45.25-2.11-15.31-4.57-30.57-5.06-46.06,.46-.63,.91-1.27,1.37-1.9Z"/><path class="cls-4" d="M978.7,836.44c1.39-9.96,1.97-20.05,9.23-28.26,5.56-6.28,10.41-6.65,14.67,.51,4.93,8.29,5.27,17.81,5.82,27.17-1.48-.03-2.95-.06-4.43-.09,.16-4.71,.38-9.57-2.08-13.7-1.96-3.28-4.32-7.22-8.91-6.73-4.02,.43-6.12,3.65-7.23,7.48-1.3,4.48-2.76,8.92-4.16,13.37-.97,.08-1.94,.17-2.91,.25Z"/><path class="cls-5" d="M981.61,836.19c1.39-4.45,2.85-8.89,4.16-13.37,1.11-3.82,3.21-7.05,7.23-7.48,4.59-.49,6.95,3.45,8.91,6.73,2.46,4.13,2.24,8.99,2.08,13.7-7.46,.14-14.92,.28-22.38,.42Z"/><path class="cls-5" d="M883.03,1590.14c.49,15.49,2.95,30.75,5.06,46.06,2.07,15.04,3.59,30.17,5.36,45.25-2.69-4.21-5.75-8.61-7.32-13.61,2.71-4.15,1.44-8.6,.82-12.92-2.78-19.3-5.66-38.59-8.51-57.88,1.54-2.27,2.58-4.92,4.6-6.9Z"/><path class="cls-5" d="M881.55,501.54c-13.3-17.8-9.99-29.71-.08-48.08,.03,16.03,.06,32.05,.08,48.08Z"/><path class="cls-4" d="M892.06,853.86c2.74-24.31,5.77-48.59,7.57-73.01,.31-4.18-.04-9.01,4.18-12.01,.26,5.44,.53,10.87,.79,16.31-4.42,3.4-1.79,8.28-2.3,12.38-2.25,18.22-3.92,36.51-5.8,54.77-1.34,.91-2.68,.87-4.44,1.56Z"/><path class="cls-4" d="M1133.69,864.59c2.26-21.66,5.3-56.93,15.95-70.29,6.85-1.38-3.71,20.89-4.68,27.89-1.21,8.77-4.92,17.49-4.54,26.1,.29,6.61,2.24,13.2,.66,19.96-2.68-.78-5.48-1.32-7.4-3.66Z"/><path class="cls-4" d="M878.43,1597.04c2.85,19.29,5.74,38.58,8.51,57.88,.62,4.32,1.89,8.77-.82,12.92-2.29-3.84-5.21-7.34-6.46-11.76,3.52-2.92,2.15-6.99,1.73-10.33-1.57-12.34-3.68-24.6-4.27-37.05-.12-2.47-1-4.24-3.34-5.19,1.67-2.34,2.61-4.83,4.65-6.48Z"/><path class="cls-4" d="M1123.27,755.61c-4.72,19.86-11.33,39.29-13.37,59.75-.22,2.18-.08,5.39-3,4.75-2.77-.61-.27-3.24-.28-4.99-.12-18.3,5.68-35.45,10.16-52.86,.55-2.12,.43-4.41,.63-6.62,1.96-.01,3.91-.02,5.87-.03Z"/><path class="cls-4" d="M1124.56,860.38c3.07-20.84,6.15-41.68,9.18-62.53,.29-1.96,9.05-27.04,11.45-28.61-3.96,23.98-10.98,64.49-14.42,93.68-2.5,.22-4.63-.49-6.21-2.54Z"/><path class="cls-4" d="M881.55,501.54c-.03-16.03-.05-32.05-.08-48.08,1.54-2.91,3.08-5.82,4.63-8.74,1.89,1.45,1.71,3.6,1.41,5.47-3.07,19.2-.53,38.54-1.59,57.79-1.75-2.67-2.64-3.75-4.36-6.44Z"/><path class="cls-4" d="M1115.3,501.42c-.76-1.81-2.1-3.6-2.2-5.44-.71-14.07-1.17-28.14-1.7-42.22-.08-2.05,0-4.07,2.67-4.53,.7,1.27,1.39,2.55,2.09,3.82,.93,14.71,1.86,29.43,2.79,44.14-1.87,1.99-2.18,2.21-3.66,4.23Z"/><path class="cls-5" d="M1118.95,497.19c-.93-14.71-1.86-29.42-2.79-44.14,12.63,17.53,13.74,29.8,3.89,43.18-.28,.38-.73,.64-1.1,.96Z"/><path class="cls-4" d="M1169.63,884.9c.89-11.66-1.73-23.18-1.48-34.8,.25-11.55-1.47-23.23,2.79-34.65,.55,12.65,1.23,25.3,1.6,37.96,.25,8.43,.09,16.87,.03,25.3-.02,2.39,.71,5.06-1.81,6.82-.48-.02-.85-.23-1.12-.63Z"/><path class="cls-4" d="M905.18,792.8c1.38,17.09,1.83,34.2,1.78,51.34,0,3.25,.56,6.83-4.5,6.62-4.01-12.06,.36-24.07,.87-36.03,.31-7.19-1.26-14.87,1.85-21.93Z"/><path class="cls-5" d="M873.78,1603.53c2.33,.94,3.22,2.71,3.34,5.19,.59,12.45,2.71,24.71,4.27,37.05,.42,3.34,1.79,7.4-1.73,10.33-1.9-2.5-3.72-5.03-4.18-8.26,1.01-13.78-.25-27.3-4.55-40.48,1.47-1.94,1.47-2.68,2.85-3.82Z"/><path class="cls-4" d="M653.08,814.73c-.04,12.79-.07,25.57-.11,38.36"/><path class="cls-4" d="M653.08,814.73l4.53-7.54c.05,18.03,.11,36.06,.16,54.09l-4.8-8.19"/><path class="cls-5" d="M905.18,792.8c-3.11,7.05-1.54,14.74-1.85,21.93-.51,11.96-4.88,23.97-.87,36.03-1.99,.51-3.98,1.03-5.98,1.54,1.88-18.26,3.56-36.55,5.8-54.77,.51-4.1-2.12-8.98,2.3-12.38,0,3.02,.55,5.11,.59,7.65Z"/><path class="cls-5" d="M653.08,814.73c-.04,12.79-.07,25.57-.11,38.36-8.75-12.81-8.38-25.6,.11-38.36Z"/><path class="cls-4" d="M1172.53,754.15c5.7,17.64,1.36,64.44-3.11,77.33-2.77-12.75,1.18-64.6-1.29-77.36,1.47,.01,2.94,.02,4.4,.03Z"/><path class="cls-4" d="M870.93,1607.35c4.3,13.18,5.56,26.7,4.55,40.48-1.7-2.17-1.98-4.06-3.08-6.36-.37-9.81-1.69-19.48-4.3-28.95,.31-2.07,1.34-3.74,2.83-5.16Z"/><path class="cls-5" d="M868.1,1612.51c2.62,9.48,3.93,19.14,4.3,28.95-5.83-9-11.28-18.05-4.3-28.95Z"/><path class="cls-4" d="M1147.19,755.53c.57,9.7-6.81,30.47-13.52,45.92-1.19-9.05,7.62-37.4,9.08-45.9,1.48,0,2.96-.01,4.44-.02Z"/><path class="cls-4" d="M1129.63,1630.73c-4.25-6.25,1.59-12.6-.19-18.87,5.47,7.71,5.51,12.05,.19,18.87Z"/><path class="cls-5" d="M1232.12,935.4c.9-8.81,1.08-17.72,3.82-26.29-1.73,9.23-.11,18.55-1.04,27.76-.93-.49-1.85-.98-2.78-1.47Z"/><path class="cls-5" d="M913.58,1488.7c.11,.34,.26,.68,.3,1.03,.01,.11-.27,.26-.42,.39,.04-.47,.08-.95,.12-1.42Z"/><path class="cls-4" d="M1260.67,931.44c.59-.4,1.18-.79,1.78-1.19-.59,.4-1.18,.79-1.78,1.19Z"/><path class="cls-5" d="M1079.78,753.52c1.19,20.76-1.96,41.37-2.69,62.05v-62.13c.9,.03,1.79,.05,2.69,.08Z"/><path class="cls-5" d="M1076.2,833.14c-.67-4.31-.97-6.64,.04-9.36,1.29,2.79,.96,5.2-.04,9.36Z"/></g></g><g id="agDEH6.tif"><g><path class="cls-3" d="M1096.97,977.39c.16-22.76-5.78-51.66-12.96-76.7-.6-2.1-2.14-4.91-.4-6.29,2.04-1.62,3.92,1.24,5.65,2.36,22.56,14.6,43.1,29.89,61.88,49.28,23.48,24.24,39.28,56.01,48.21,88.69,6.8,24.85,8.04,50.08,4.24,75.61-2.07,13.94-5.03,27.57-11.06,40.38-7.16,15.23-18.25,24.51-34.34,30.85-13.17,5.19-25.11,5.58-38.76,3.52-12.53-1.89-24.13-6.6-35.54-11.89-8.74-4.05-18.68-5.08-28.6-4.18-3.69,.33-5.57-1.94-5.64-6.68-.19-11.41-3.17-22.09-8.53-32.06-5.97-11.11-14.05-20.7-22.35-30.13-5.25-5.96-10.35-12.04-15.45-18.14-.94-1.12-1.59-2.52-2.21-3.86-.82-1.79-2.07-3.86-.52-5.57,1.59-1.74,3.97-1.11,5.98-.48,4.27,1.35,8.61,2.4,13.03,3.11,16.88,2.71,32.48,0,45.83-11.29,9.31-7.87,19.48-17.94,23.75-29.29,6.55-17.39,7.69-35.53,7.75-57.23Z"/><path class="cls-3" d="M733.68,1155.2c.12-18.65,1.71-33.51,5.64-48.66,5.35-20.63,15.16-40.62,25.1-59.46,.58-1.09,1.03-2.82,2.3-2.58,1.53,.28,.87,2.09,.89,3.22,.35,16.01,1.06,32,3.05,47.9,2.86,22.86,9.56,44.4,23.44,63.12,11.98,16.16,32.39,25.34,52.78,25.99,19.15,.61,37.04-4.82,54.42-12.19,4.23-1.79,7.82-4.78,11.29-7.82,3.45-3.01,5.41-2.58,6.84,1.61,5.96,17.49,11.89,34.99,17.72,52.52,1.28,3.85,1.19,7.71-2.14,10.66-10.6,9.4-16.64,20.7-18.45,33.95-1.29,9.46-2.09,19.04-4.95,28.19-4.83,15.47-12.59,26.9-27.16,33.29-13.7,6.01-27.73,10.05-42.99,7.89-12.31-1.74-22.43-7.5-31.37-15.83-26.07-24.29-48.4-52.68-60.43-85.99-6.63-18.37-11.71-38.22-14.37-57.57-.96-6.99-1.24-14.08-1.6-18.27Z"/><path class="cls-3" d="M1093.07,1253.28c.26,11.26-2.35,19.75-4.04,28.37-3.14,16.05-6.47,32.07-9.72,48.11-.61,3.04-1.19,6.08-1.78,9.12-.19,.97-.23,2.1-1.36,2.45-1.33,.41-2.03-.68-2.74-1.49-2.78-3.17-5.73-6.22-8.23-9.6-9.04-12.21-21.08-20.9-33.6-29.06-8.66-5.65-17.87-10.18-27.46-14.04-17.24-6.94-29.51-19.61-39.96-34.54-19.72-28.17-32.24-59.37-39.76-92.71-1.61-7.15,.13-13.98,2.51-20.77,4.87-13.92,9.18-28.05,14.32-41.87,5.96-16,18.47-24.66,34.57-28.76,2.64-.67,5.25-1.47,8.03-1.51,5.18-.07,7.76,1.88,9.13,6.87,.98,3.59,1.05,7.35,2.39,10.88,2.15,5.66,5.7,10.22,10.67,13.51,17.96,11.88,28.86,28.65,34.46,49.13,2.69,9.84,4.15,19.89,4.68,30.08,.45,8.74,4.61,15.47,11.44,20.8,11.33,8.85,21.24,19.04,28.83,31.33,5.3,8.58,7.47,15.89,7.59,23.7Z"/><path class="cls-3" d="M956.94,882.2c-.45,1.01-.89,2.03-1.36,3.04-13.94,30.44-14.82,61.49-8.03,94.5,5.72,27.79,18.26,52.55,33.73,76.01,2.57,3.91,2.39,4.26-2.27,5.35-15.22,3.54-29.14,9.26-38.05,23.18-3.95,6.16-5.59,13.2-7.83,20.01-3.49,10.59-7.04,21.16-10.56,31.74-.27,.81-.41,1.91-1.56,1.7-1.45-.27-1.22-1.68-1.41-2.71-3.1-16.28-5.79-34.95-13.07-49.85-16.03-32.78-41.15-56.76-72.63-74.5-5.4-3.04-10.91-5.93-16.49-8.62-2.9-1.4-5.48-3.32-3.6-5.24,3.93-4.03,8.51-7.28,13.36-10.01,12.92-10.2,25.82-20.3,35.81-35.96,6.87-10.76,16.2-26.11,23.6-36.55,12.08-17.06,26.76-27.97,46.33-34.14,7.46-2.35,9.6-2.38,17.42-2.43,2.53-.02,6.32,1.99,6.61,4.47Z"/></g></g></g></svg>